<svg xmlns="http://www.w3.org/2000/svg" width="128" height="128"><g style="stroke-width:1.7044872"><path d="M105.8 16.6c-7.4 18.2-11.8 30-20 47.6 5 5.4 11.2 11.6 21.2 18.6a88.2 88.2 0 0 1-23.7-13.5c-10.5 22-27 53.3-60.5 113.5 26.3-15.2 46.7-24.6 65.7-28.1-.8-3.6-1.3-7.4-1.2-11.3v-.9c.4-16.8 9.2-29.8 19.6-29 10.4 1 18.5 15.3 18 32.2 0 3.2-.4 6.2-1 9 18.8 3.8 39 13.1 65 28.1l-14-26c-7-5.3-14.1-12.3-28.7-19.8 10 2.6 17.2 5.6 22.8 9-44.4-82.7-48-93.6-63.2-129.4Z" style="fill:#1793d1;fill-opacity:1;fill-rule:evenodd;stroke:none;stroke-width:1.7044872" transform="matrix(.58669 0 0 .58669 1.4 5.5)"/><g style="font-style:normal;font-weight:400;font-size:8.25130367px;font-family:&quot;DejaVu Sans Mono&quot;;fill:#1793d1;fill-opacity:1;stroke:none;stroke-width:1.7044872"><path d="M239.8 313.7v-5.2h-2v-.7h4.8v.7h-2v5.2h-.8M243.4 313.7v-6h1.2l1.4 4.3.2.8.4-.9 1.4-4.1h1v5.9h-.7v-5l-1.7 5h-.7l-1.8-5v5h-.7" style="fill:#1793d1;fill-opacity:1;stroke-width:1.7044872" transform="matrix(.51314 0 0 .51314 -10.3 -57)"/></g></g></svg>
