<svg xmlns="http://www.w3.org/2000/svg" width="128" height="128"><g style="overflow:visible;fill:#a80030;fill-opacity:1;stroke-width:1.18629253"><g style="fill:#a80030;fill-opacity:1;stroke-width:1.18629253"><path d="M61 47.6c-1.5 0 .3.8 2.2 1.1l1.5-1.2c-1.2.3-2.5.3-3.7.1M69 45.6a9.5 9.5 0 0 0 1.8-4c-.2 1-.8 2-1.3 2.8-2.8 1.8-.3-1 0-2-3 3.7-.4 2.2-.5 3.2M72 38c.1-2.7-.6-1.9-.8-.9.3.2.5 2 .7.8M55.3 1.2c.8.1 1.7.2 1.6.4.9-.2 1-.4-1.6-.4M56.9 1.6l-.6.1h.6" style="fill:#a80030;fill-opacity:1;stroke-width:1.18629253" transform="matrix(1.26444 0 0 1.26444 -4.3 7.5)"/><path d="M81.8 39c0 2.4-.7 3.6-1.5 5.6l-1.3.7c-1 2 .1 1.3-.6 3-1.7 1.4-5 4.5-6 4.8-.9 0 .4-1 .6-1.3-2.2 1.5-1.8 2.3-5.1 3.2l-.1-.2c-8.4 3.9-20-3.9-19.8-14.5 0 .7-.2.5-.4.8C47 35.7 50 30.1 55 28a12.6 12.6 0 0 1 14 1.9c-1.9-2.5-5.7-5.2-10.2-5-4.4.1-8.6 3-10 6-2.2 1.4-2.5 5.5-3.5 6.2-1.3 9.8 2.5 14 9 19 1 .7.3.8.4 1.3-2.1-1-4.1-2.5-5.7-4.4.8 1.3 1.8 2.5 3 3.4-2-.7-4.8-4.9-5.6-5 3.5 6.2 14.2 11 19.8 8.6-2.6 0-5.9 0-8.8-1-1.2-.7-2.9-2-2.6-2.2a21.8 21.8 0 0 0 22.2-3.1c1.7-1.4 3.5-3.6 4-3.6-.8 1.2.2.6-.5 1.6 1.7-2.7-.7-1 1.8-4.6l.9 1.2c-.4-2.2 2.8-5 2.4-8.5.8-1 .8 1.2 0 3.7 1.1-2.8.4-3.3.6-5.5l1 2.4c-.8-2.7.6-4.5 1-6.1-.4-.2-1.1 1.2-1.3-2 0-1.4.4-.7.6-1-.3-.2-1-1.2-1.5-3.3.4-.4.9 1.3 1.3 1.3-.3-1.6-.7-2.8-.8-4-1.2-2.6-.4.3-1.4-1.1-1.3-4.1 1-1 1.3-2.9 2 3 3.1 7.4 3.6 9.3-.4-2.3-1-4.5-1.8-6.6.6.3-1-4.7.8-1.4C87 15.5 81 9.1 75.3 6c.7.7 1.6 1.5 1.3 1.6-2.9-1.7-2.4-1.8-2.8-2.5-2.3-1-2.4 0-4 0-4.3-2.4-5.1-2.1-9.2-3.6l.2.9c-2.9-1-3.3.4-6.4 0-.2-.1 1-.5 2-.7-2.9.4-2.7-.5-5.4.1l2-1.2c-2.2.2-5.4 1.4-4.4.3-3.7 1.6-10.3 4-14 7.4v-.8c-1.8 2-7.5 6.1-8 8.7l-.4.2c-.9 1.4-1.4 3.1-2.1 4.7-1.2 2-1.7.7-1.6 1-2.2 4.6-3.3 8.5-4.3 11.6.7 1 0 6.3.3 10.4a46.4 46.4 0 0 0 31.4 45.1c2.5 1 6.2.9 9.3 1-3.7-1-4.2-.6-7.8-1.9-2.6-1.2-3.2-2.6-5-4.2l.7 1.3c-3.6-1.3-2.1-1.6-5-2.5l.7-1c-1.2-.1-3-2-3.6-3h-1.3c-1.6-2-2.4-3.3-2.3-4.4l-.4.8c-.5-.8-5.7-7.2-3-5.7-.5-.5-1.2-.8-2-2l.6-.7c-1.3-1.7-2.4-3.8-2.3-4.6.7 1 1.2 1.2 1.7 1.3-3.3-8.1-3.5-.4-6-8.3h.5l-1-2 .3-2.2c-2.4-2.8-.7-11.7-.3-16.6.2-2 2-4 3.3-7.4l-.8-.1c1.5-2.7 8.8-10.8 12.1-10.4 1.7-2-.3 0-.6-.5 3.6-3.7 4.7-2.6 7.1-3.3 2.6-1.6-2.2.6-1-.6 4.5-1.1 3.2-2.6 9-3.2.7.4-1.4.6-1.9 1 3.8-1.8 11.9-1.4 17.2 1 6 2.9 13 11.3 13.2 19.3h.3c-.1 3.2.5 6.9-.6 10.3l.8-1.6" style="fill:#a80030;fill-opacity:1;stroke-width:1.18629253" transform="matrix(1.26444 0 0 1.26444 -4.3 7.5)"/><path d="m44.7 49.7-.3 1c1 1.4 1.8 2.8 3 3.9-.8-1.8-1.5-2.5-2.7-5M47 49.6c-.5-.6-.8-1.3-1.2-2 .3 1.3 1 2.3 1.6 3.4l-.4-1.4M88 40.7l-.2.5c-.4 2.9-1.2 5.7-2.6 8.3 1.5-2.7 2.5-5.8 2.9-8.8M55.6.4c1-.3 2.5-.2 3.6-.4L55 .4h.6M20.1 19.3c.3 2.2-1.6 3 .4 1.6 1.1-2.5-.4-.7-.4-1.6M17.7 29.3c.5-1.5.6-2.3.8-3.2-1.3 1.7-.6 2-.8 3.2" style="fill:#a80030;fill-opacity:1;stroke-width:1.18629253" transform="matrix(1.26444 0 0 1.26444 -4.3 7.5)"/></g></g></svg>
