<svg xmlns="http://www.w3.org/2000/svg" width="128" height="128"><path d="M64 16.5A48 48 0 0 0 15.8 64v36.7c0 6 4.9 10.8 11 10.8H64A47.9 47.9 0 0 0 112.2 64 47.9 47.9 0 0 0 64 16.5Zm9.8 19.6c8.1 0 15.8 6 15.8 14.5l-.1 2.4a4 4 0 0 1-4.6 3.6 4 4 0 0 1-3.4-4.7v-1.3c0-4.8-4-6.6-7.7-6.6s-7.1 3-7.1 6.6v12.1h7c5.4-.1 5.5 8 0 7.9h-7V82A17.9 17.9 0 0 1 31 80.4c.3-9.9 8.3-17.7 18.5-17.6h5.7v7.8h-5.7c-5.6.2-10.4 4-10.5 9.8 0 5.4 4.4 9.7 9.9 9.7 5.4 0 9.8-4 9.8-9.6V48.9c1-7.3 7.6-12.9 15.1-12.9z" style="fill:#51a2da;stroke-width:.471972"/></svg>
