<svg xmlns="http://www.w3.org/2000/svg" width="128" height="128"><g style="stroke-width:3.91830349"><path d="M290.1 115a10 10 0 0 1-6.4-17c2-1.9 4.5-2.8 7.1-2.7a10 10 0 0 1-.7 19.8zm2.3-8.9c2.5 0 4.4-1.3 4.4-3 0-1.6-2-2.9-4.4-2.9-2.4 0-4.4 1.3-4.4 3 0 1.6 2 2.9 4.4 2.9" style="fill:#73ba25;fill-opacity:1;fill-rule:nonzero;stroke:none;stroke-width:3.91830349;stroke-miterlimit:4" transform="matrix(.38282 0 0 .38282 -13.2 3.4)"/><path d="M177.8 172h.3v-.4c0-.3-.2-.6-.5-4.7-.3-3.6-.9-13.4 4-18.3 2-1.9 5-3.6 7.2-4.1 9.5-2.3 21.8-.7 32.3 11.4 5.4 6.3 8.1 9.2 9.4 10.5l.5.4.5.4 18.1 8.3h.4v-.4c-.1-.2-11.2-14.4-9.2-26.2 1.5-9.4 9-8.5 19.3-7.4 3.4.4 7.2.9 11.2 1 11 0 23-2 30.4-5.2 4.7-2.1 7.7-3.5 9.7-5.2.6-.6 1-1.5 1.4-2.5l.2-.7 1-3.4c0-.4.1-.8-.2-1l-1 .1c-3.2 2-11.3 5.7-18.9 5.8-9.3.2-28.2-9.4-30.2-10.4l-.2-.2-3.9-9.3c13.6 9 24.9 14 33.5 14.7 9.6.8 17.1-4.4 20.3-6.7l1.3-.8.2-.3a76.4 76.4 0 0 0-9.3-23.6c-1-1.1-2-2.2-3.6-3.2-13.7-8-46.3-12.8-47.9-13h-.2l-.1.3-.2 7.5c-3.3-1.1-27.5-9-50.2-9.7-19.2-.7-45.5-1.6-82.6 21.2l-1 .7a85.6 85.6 0 0 0-35.9 40c-2 4.8-4.6 15.9-2 26.3a39.8 39.8 0 0 0 35 29.7c16.5 1.5 29-6 33.4-19.7 3-9.6 0-23.6-11.7-30.7a24.3 24.3 0 0 0-25.7-.6c-5.1 3.4-8 8.7-8 14.5a16 16 0 0 0 15.4 15.8 18.5 18.5 0 0 0 8-2l.3-.1.2-.1a5.2 5.2 0 0 0 2-5.8 5.2 5.2 0 0 0-6-3.7l-.3.1-.5.2-.7.2c-1.5.4-2.6.4-2.8.4-.8 0-4.4-1.1-4.4-5.2a6 6 0 0 1 .9-3.1c1.1-1.8 4.3-3.6 8.5-3.2 5.5.5 9.5 3.3 12.2 8.7A15 15 0 0 1 136 175c-3.4 4.4-9.6 6.3-17.7 5.4-8.3-.9-15.3-5.6-19.2-13-3.8-7.2-4-15.8-.5-22.4 8.3-15.7 24.1-15.6 32.8-14a40.6 40.6 0 0 1 31.2 31.5l.5 2.3 14.5 7.1.2.1zm102.8-76.9c-2.8 2.5-4.3 6-4.5 9.7a14 14 0 0 0 23.5 10.7 14 14 0 0 0-19-20.4" style="fill:#73ba25;fill-opacity:1;fill-rule:evenodd;stroke:none;stroke-width:3.91830349;stroke-miterlimit:4" transform="matrix(.38282 0 0 .38282 -13.2 3.4)"/><path d="M176.7 185.8c-6 0-9.3 5.1-9.3 8.7v4.5c0 5.2 4.2 8.4 8.2 8.4h13.8c1.7 0 2 1.1 2 2.1v3c0 .2 0 3-2 3h-18.9c-1.9 0-3.2 1.3-3.2 3.1v.8c0 1.8 1.3 3.1 3.2 3.1h19.9c5.2 0 8.6-3.6 8.6-9.2v-4.9c0-5.2-3.8-7.6-7.6-7.6h-13.6c-2 0-3-1.5-3-2.6v-2.7c0-1.7 1.2-2.7 3.2-2.7h15c1.9 0 3.3-1.3 3.3-3v-.9c0-1.7-1.4-3-3.3-3h-16.2M233.3 185.8a3.2 3.2 0 0 0-3.3 3.3v23.1c0 1.8-1.5 3.3-3.3 3.3h-10.5a3.3 3.3 0 0 1-3.3-3.3v-23.1c0-1.8-1.5-3.3-3.3-3.3h-1a3.2 3.2 0 0 0-3.2 3.3v24c0 5.6 4.4 9.6 10.5 9.6H227c6 0 10.4-4 10.4-9.6v-24c0-1.8-1.4-3.3-3.2-3.3h-1M253.4 185.8c-6 0-9.4 5.1-9.4 8.7v4.5c0 5.2 4.3 8.4 8.2 8.4H266c1.8 0 2.1 1.1 2.1 2.1v3c0 .2 0 3-2 3h-19c-1.8 0-3.1 1.3-3.1 3.1v.8c0 1.8 1.3 3.1 3.2 3.1H267c5.2 0 8.5-3.6 8.5-9.2v-4.9c0-5.2-3.8-7.6-7.5-7.6h-13.6c-2 0-3-1.5-3-2.6v-2.7c0-1.7 1.1-2.7 3.1-2.7h15c2 0 3.3-1.3 3.3-3v-.9c0-1.7-1.4-3-3.3-3h-16.2M285.2 185.8a3 3 0 0 0-3.2 3.1v30.5a3 3 0 0 0 3.1 3.1h24.3c1.9 0 3.3-1.3 3.3-3v-.9c0-1.7-1.4-3-3.3-3h-19.9v-7.8h14.6c1.9 0 3.2-1.3 3.2-3.1v-.8c0-1.8-1.3-3.1-3.2-3.1h-14.6v-8h19c1.8 0 3.1-1.3 3.1-3v-.9c0-1.7-1.3-3-3.2-3h-23.2M78.3 200.4c-3 0-5.5 2.3-5.5 5.2v11.6c0 3 2.4 5.3 5.3 5.3h7.5c2.9 0 5.3-2.4 5.3-5.3v-11.6c0-2.9-2.5-5.2-5.5-5.2zm-1.6 16.3v-10.5c0-1.2 1-2.2 2.2-2.2h5.8c1.3 0 2.3 1 2.3 2.2v10.5c0 1.2-1 2.2-2.3 2.2H79c-1.2 0-2.2-1-2.2-2.2M107.8 200.2c-2.2 0-3.8.8-5 1.4-.9.4-1.6.7-2 .7a.6.6 0 0 1-.6-.3l-.5-1c-.1-.2-.6-.6-1.3-.6h-.7c-.7 0-1.2.6-1.2 1.4v29.1c0 1 .7 1.7 1.6 1.7h.6c1 0 1.6-.8 1.6-1.7v-9.6c0-.3.2-.6.4-.6.5 0 1.2.3 2 .7 1.3.5 3 1.3 5 1.3h.8c3.8 0 6.1-2.2 6.1-5.7V206c0-3.4-2.4-5.7-6.1-5.7h-.7zm-7.5 16.3v-10c0-1.4 1.1-2.5 2.5-2.5h5.4c1.4 0 2.5 1 2.5 2.4v10c0 1.4-1.1 2.5-2.5 2.5h-5.4a2.5 2.5 0 0 1-2.5-2.4M125.7 200.4c-3 0-5.6 2.3-5.6 5.2v11.5c0 3 2.4 5.4 5.3 5.4h7.7c.9 0 1.6-.6 1.6-1.5v-.5c0-.9-.7-1.5-1.6-1.5h-6.3c-1.8 0-2.7-.9-2.7-2.6v-3.3h11.3c1.9 0 3-1.1 3-3v-4.4c0-3-2.5-5.3-5.6-5.3h-7.1zm-1.7 5.8c0-1.3 1-2.2 2.2-2.2h6c1.3 0 2.2 1 2.2 2.2v3.5H124v-3.5M154.2 200.2c-2.2 0-3.8.8-5 1.4-.9.4-1.6.7-2.1.7-.3 0-.4 0-.6-.4l-.4-.8c-.3-.5-.7-.7-1.3-.7h-.6c-.8 0-1.3.5-1.3 1.4v19.1c0 1 .7 1.6 1.6 1.6h.6c1 0 1.6-.7 1.6-1.6v-14.5c0-1.3 1.2-2.4 2.5-2.4h5.4c1.4 0 2.5 1 2.5 2.4V221c0 1 .7 1.6 1.6 1.6h.7c.9 0 1.6-.7 1.6-1.6v-15c0-3.5-2.4-5.7-6.2-5.7h-.6" style="fill:#73ba25;fill-opacity:1;stroke:none;stroke-width:3.91830349" transform="matrix(.38282 0 0 .38282 -13.2 3.4)"/><path d="M317.6 185.5a3.2 3.2 0 0 0-3.1 3.2c0 1.9 1.4 3.3 3.1 3.3 1.8 0 3.2-1.4 3.2-3.3 0-1.7-1.4-3.2-3.1-3.2m0 .5c1.4 0 2.5 1.2 2.5 2.8 0 1.5-1.1 2.7-2.5 2.7a2.6 2.6 0 0 1-2.6-2.8c0-1.5 1.1-2.7 2.5-2.7m-.6 3h.4c.5 0 .7.2.8.7 0 .5.2.8.3 1h.6a3 3 0 0 1-.3-1c0-.5-.3-.8-.6-.8.4-.2.7-.5.7-1 0-.3 0-.5-.3-.7-.2-.1-.6-.3-1.1-.3l-1 .1v3.6h.5v-1.5m0-1.7h.5c.6 0 .8.3.8.6 0 .5-.4.6-.8.6h-.5v-1.2" style="font-style:normal;font-variant:normal;font-weight:400;font-stretch:normal;font-size:18.71269226px;line-height:125%;font-family:Myriad;-inkscape-font-specification:Myriad;text-indent:0;text-align:start;text-decoration:none;text-decoration-line:none;letter-spacing:normal;word-spacing:normal;text-transform:none;writing-mode:lr-tb;direction:ltr;text-anchor:start;display:inline;overflow:visible;visibility:visible;fill:#73ba25;fill-opacity:1;fill-rule:evenodd;stroke:none;stroke-width:3.91830349;stroke-linecap:butt;stroke-linejoin:round;stroke-miterlimit:4;stroke-dashoffset:0;stroke-opacity:1;marker:none;marker-start:none;marker-mid:none;marker-end:none;enable-background:accumulate" transform="matrix(.38282 0 0 .38282 -13.2 3.4)"/></g></svg>
