<?xml version="1.0" encoding="UTF-8" standalone="no"?>
<svg
   xmlns:osb="http://www.openswatchbook.org/uri/2009/osb"
   xmlns:dc="http://purl.org/dc/elements/1.1/"
   xmlns:cc="http://creativecommons.org/ns#"
   xmlns:rdf="http://www.w3.org/1999/02/22-rdf-syntax-ns#"
   xmlns:svg="http://www.w3.org/2000/svg"
   xmlns="http://www.w3.org/2000/svg"
   width="16.000011"
   viewBox="0 0 16.000011 16"
   version="1.1"
   id="svg7384"
   height="16">
  <metadata
     id="metadata90">
    <rdf:RDF>
      <cc:Work
         rdf:about="">
        <dc:format>image/svg+xml</dc:format>
        <dc:type
           rdf:resource="http://purl.org/dc/dcmitype/StillImage" />
        <dc:title>Gnome Symbolic Icon Theme</dc:title>
      </cc:Work>
    </rdf:RDF>
  </metadata>
  <title
     id="title9167">Gnome Symbolic Icon Theme</title>
  <defs
     id="defs7386">
    <linearGradient
       osb:paint="solid"
       id="linearGradient7212">
      <stop
         style="stop-color:#000000;stop-opacity:1;"
         offset="0"
         id="stop7214" />
    </linearGradient>
  </defs>
  <g
     transform="translate(-400,-160)"
     style="display:inline"
     id="layer1" />
  <g
     transform="translate(-641.0002,207)"
     style="display:inline"
     id="layer9">
    <path
       d="m 651.0002,-204 a 4.0000017,4.0000017 0 0 0 -3.63086,2.33398 2.9999998,2.9999998 0 0 0 -1.36914,-0.33398 2.9999998,2.9999998 0 0 0 -3,3 2.9999998,2.9999998 0 0 0 0.18164,1.02344 2.5,2.5 0 0 0 -2.18164,2.47656 2.5,2.5 0 0 0 2.5,2.5 h 10.5 a 3.0000013,3.0000013 0 0 0 3,-3 3.0000013,3.0000013 0 0 0 -2.16211,-2.87695 4.0000017,4.0000017 0 0 0 0.16211,-1.12305 4.0000017,4.0000017 0 0 0 -4,-4 z m 0,2 h 0.002 c 1.12729,0.001 1.99805,0.87241 1.99805,2 -3.8e-4,0.18942 -0.0267,0.37684 -0.0801,0.55859 -0.31203,1.06157 0.29709,2.1748 1.35938,2.48438 0.4351,0.12656 0.72015,0.50585 0.7207,0.95898 -0.001,0.57494 -0.42473,0.99805 -1.00003,0.99805 h -10.5 c -0.29925,0 -0.49922,-0.19919 -0.5,-0.49805 v -0.002 c 0.001,-0.26593 0.17146,-0.45828 0.43555,-0.49219 1.27258,-0.16287 2.06495,-1.46475 1.625,-2.66992 -0.0394,-0.10813 -0.0598,-0.22282 -0.0606,-0.33789 v -0.002 c 0.001,-0.57426 0.42379,-0.99705 0.99805,-0.99805 0.1582,6.5e-4 0.31251,0.0388 0.45312,0.11133 1.01473,0.52376 2.26129,0.0931 2.73633,-0.94531 0.32709,-0.71398 1.02731,-1.16416 1.8125,-1.16602 z"
       id="path2022"
       style="color:#bebebe;display:inline;overflow:visible;visibility:visible;fill:#2e3436;fill-opacity:1;fill-rule:nonzero;stroke:none;stroke-width:1.99999976;marker:none;enable-background:accumulate" />
  </g>
  <g
     transform="translate(-641.0002,207)"
     style="display:inline"
     id="g7628" />
  <g
     transform="translate(-400,-160)"
     style="display:inline"
     id="g6387" />
  <g
     transform="translate(-400,-160)"
     style="display:inline"
     id="layer10" />
  <g
     transform="translate(-400,-160)"
     id="layer12" />
  <g
     transform="translate(-400,-160)"
     style="display:inline"
     id="layer11" />
</svg>
