<svg xmlns="http://www.w3.org/2000/svg" viewBox="0 0 48 48">
 <defs>
  <linearGradient id="linearGradient3764" x1="1" x2="47" gradientUnits="userSpaceOnUse" gradientTransform="matrix(0,-1,1,0,-1.5e-6,47.999998)">
   <stop style="stop-color:#243964;stop-opacity:1"/>
   <stop offset="1" style="stop-color:#294172;stop-opacity:1"/>
  </linearGradient>
 </defs>
 <g>
  <path d="m 36.31 5 c 5.859 4.062 9.688 10.831 9.688 18.5 c 0 12.426 -10.07 22.5 -22.5 22.5 c -7.669 0 -14.438 -3.828 -18.5 -9.688 c 1.037 1.822 2.306 3.499 3.781 4.969 c 4.085 3.712 9.514 5.969 15.469 5.969 c 12.703 0 23 -10.298 23 -23 c 0 -5.954 -2.256 -11.384 -5.969 -15.469 c -1.469 -1.475 -3.147 -2.744 -4.969 -3.781 z m 4.969 3.781 c 3.854 4.113 6.219 9.637 6.219 15.719 c 0 12.703 -10.297 23 -23 23 c -6.081 0 -11.606 -2.364 -15.719 -6.219 c 4.16 4.144 9.883 6.719 16.219 6.719 c 12.703 0 23 -10.298 23 -23 c 0 -6.335 -2.575 -12.06 -6.719 -16.219 z" style="opacity:0.05"/>
  <path d="m 41.28 8.781 c 3.712 4.085 5.969 9.514 5.969 15.469 c 0 12.703 -10.297 23 -23 23 c -5.954 0 -11.384 -2.256 -15.469 -5.969 c 4.113 3.854 9.637 6.219 15.719 6.219 c 12.703 0 23 -10.298 23 -23 c 0 -6.081 -2.364 -11.606 -6.219 -15.719 z" style="opacity:0.1"/>
  <path d="m 31.25 2.375 c 8.615 3.154 14.75 11.417 14.75 21.13 c 0 12.426 -10.07 22.5 -22.5 22.5 c -9.708 0 -17.971 -6.135 -21.12 -14.75 a 23 23 0 0 0 44.875 -7 a 23 23 0 0 0 -16 -21.875 z" style="opacity:0.2"/>
 </g>
 <g>
  <path d="m 24 1 c 12.703 0 23 10.297 23 23 c 0 12.703 -10.297 23 -23 23 -12.703 0 -23 -10.297 -23 -23 0 -12.703 10.297 -23 23 -23 z" style="fill:url(#linearGradient3764);fill-opacity:1"/>
 </g>
 <g>
  <g>
   <g transform="translate(1,1)">
    <g style="opacity:0.1">
     <!-- color: #294172 -->
    </g>
   </g>
  </g>
 </g>
 <g transform="translate(-6.7970614e-5,0)">
  <g>
   <!-- color: #294172 -->
  </g>
 </g>
 <g>
  <path d="m 40.03 7.531 c 3.712 4.084 5.969 9.514 5.969 15.469 0 12.703 -10.297 23 -23 23 c -5.954 0 -11.384 -2.256 -15.469 -5.969 4.178 4.291 10.01 6.969 16.469 6.969 c 12.703 0 23 -10.298 23 -23 0 -6.462 -2.677 -12.291 -6.969 -16.469 z" style="opacity:0.1"/>
 </g>
 <path d="m 30.5 12 c -4.142 0 -7.5 3.358 -7.5 7.5 0 0 0 2.048 0 3.5 l -3.5 0 c -4.142 0 -7.5 3.358 -7.5 7.5 0 4.142 3.358 7.5 7.5 7.5 4.101 -0.003 7.44 -3.299 7.494 -7.4 l 0.006 0 l 0 -0.1 0 -3.5 3.5 0 c 4.142 0 7.5 -3.358 7.5 -7.5 0 -4.142 -3.358 -7.5 -7.5 -7.5 m 0 4 c 1.933 0 3.5 1.567 3.5 3.5 0 1.933 -1.567 3.5 -3.5 3.5 l -2.5 0 c -0.554 0 -1 -0.446 -1 -1 l 0 -2.5 c 0 -1.933 1.567 -3.5 3.5 -3.5 m -11 11 2.5 0 c 0.554 0 1 0.446 1 1 l 0 2.5 a 3.5 3.5 0 0 1 -3.5 3.5 3.5 3.5 0 0 1 -3.5 -3.5 3.5 3.5 0 0 1 3.5 -3.5" style="fill:#000;opacity:0.1;fill-opacity:1;stroke:none"/>
 <path d="m 29.5 11 c -4.142 0 -7.5 3.358 -7.5 7.5 0 0 0 2.048 0 3.5 l -3.5 0 c -4.142 0 -7.5 3.358 -7.5 7.5 0 4.142 3.358 7.5 7.5 7.5 4.101 -0.003 7.44 -3.299 7.494 -7.4 l 0.006 0 l 0 -0.1 0 -3.5 3.5 0 c 4.142 0 7.5 -3.358 7.5 -7.5 0 -4.142 -3.358 -7.5 -7.5 -7.5 m 0 4 c 1.933 0 3.5 1.567 3.5 3.5 0 1.933 -1.567 3.5 -3.5 3.5 l -3.5 0 0 -3.5 c 0 -1.933 1.567 -3.5 3.5 -3.5 m -11 11 3.5 0 0 3.5 a 3.5 3.5 0 0 1 -3.5 3.5 3.5 3.5 0 0 1 -3.5 -3.5 3.5 3.5 0 0 1 3.5 -3.5" style="fill:#3c6eb2;opacity:1;fill-opacity:1;stroke:none"/>
 <path d="m 29.441 11 c -2.554 0.02 -4.922 1.338 -6.285 3.498 -0.774 1.228 -1.137 2.617 -1.137 4 l -0.01 3.5 -3.01 0 c -1.108 0 -2 0.892 -2 2 0 1.108 0.892 2 2 2 l 2 0 c 0.554 0 1 0.446 1 1 l 0 2.5 c 0 1.933 -1.567 3.501 -3.5 3.5 -0.265 0 -0.528 -0.038 -0.787 -0.094 -2.568 -0.55 -4.075 3.105 -0.9 3.902 0.57 0.143 1.159 0.196 1.746 0.191 2.554 -0.02 4.922 -1.338 6.285 -3.498 0.774 -1.228 1.137 -2.617 1.137 -4 l 0.01 -3.5 c 1 0 2.01 0 3.01 0 1.108 0 2 -0.892 2 -2 0 -1.108 -0.892 -2 -2 -2 l -2 0 c -0.554 0 -1 -0.446 -1 -1 l 0 -2.5 c 0 -1.933 1.567 -3.501 3.5 -3.5 0.265 0 0.528 0.038 0.787 0.094 2.568 0.55 4.075 -3.105 0.9 -3.902 c -0.57 -0.143 -1.159 -0.196 -1.746 -0.191" style="fill:#f9f9f9;opacity:1;fill-opacity:1;stroke:none"/>
</svg>
