<svg xmlns="http://www.w3.org/2000/svg" viewBox="0 0 48 48">
 <defs>
  <linearGradient id="linearGradient3764" x1="1" x2="47" gradientUnits="userSpaceOnUse" gradientTransform="matrix(0,-1,1,0,-1.5e-6,47.999998)">
   <stop style="stop-color:#c8d034;stop-opacity:1"/>
   <stop offset="1" style="stop-color:#ccd444;stop-opacity:1"/>
  </linearGradient>
 </defs>
 <g>
  <path d="m 36.31 5 c 5.859 4.062 9.688 10.831 9.688 18.5 c 0 12.426 -10.07 22.5 -22.5 22.5 c -7.669 0 -14.438 -3.828 -18.5 -9.688 c 1.037 1.822 2.306 3.499 3.781 4.969 c 4.085 3.712 9.514 5.969 15.469 5.969 c 12.703 0 23 -10.298 23 -23 c 0 -5.954 -2.256 -11.384 -5.969 -15.469 c -1.469 -1.475 -3.147 -2.744 -4.969 -3.781 z m 4.969 3.781 c 3.854 4.113 6.219 9.637 6.219 15.719 c 0 12.703 -10.297 23 -23 23 c -6.081 0 -11.606 -2.364 -15.719 -6.219 c 4.16 4.144 9.883 6.719 16.219 6.719 c 12.703 0 23 -10.298 23 -23 c 0 -6.335 -2.575 -12.06 -6.719 -16.219 z" style="opacity:0.05"/>
  <path d="m 41.28 8.781 c 3.712 4.085 5.969 9.514 5.969 15.469 c 0 12.703 -10.297 23 -23 23 c -5.954 0 -11.384 -2.256 -15.469 -5.969 c 4.113 3.854 9.637 6.219 15.719 6.219 c 12.703 0 23 -10.298 23 -23 c 0 -6.081 -2.364 -11.606 -6.219 -15.719 z" style="opacity:0.1"/>
  <path d="m 31.25 2.375 c 8.615 3.154 14.75 11.417 14.75 21.13 c 0 12.426 -10.07 22.5 -22.5 22.5 c -9.708 0 -17.971 -6.135 -21.12 -14.75 a 23 23 0 0 0 44.875 -7 a 23 23 0 0 0 -16 -21.875 z" style="opacity:0.2"/>
 </g>
 <g>
  <path d="m 24 1 c 12.703 0 23 10.297 23 23 c 0 12.703 -10.297 23 -23 23 -12.703 0 -23 -10.297 -23 -23 0 -12.703 10.297 -23 23 -23 z" style="fill:url(#linearGradient3764);fill-opacity:1"/>
 </g>
 <g>
  <path d="m 40.03 7.531 c 3.712 4.084 5.969 9.514 5.969 15.469 0 12.703 -10.297 23 -23 23 c -5.954 0 -11.384 -2.256 -15.469 -5.969 4.178 4.291 10.01 6.969 16.469 6.969 c 12.703 0 23 -10.298 23 -23 0 -6.462 -2.677 -12.291 -6.969 -16.469 z" style="opacity:0.1"/>
 </g>
 <path d="m 13 15 c -1 0 -2 1 -2 2 0 2.45 2.511 5 6 5 l 6 0 0 2 -10 0 c -1 0 -2 0 -2 1 0 3 4 3 5.5 3 3.5 0 3.5 -2 6.5 -2 l 0 1 1 1 0 10 1 1 1 -1 0 -10 1 -1 0 -1 c 3 0 3 2 6.5 2 1.5 0 5.5 0 5.5 -3 0 -1 -1 -1 -2 -1 l -10 0 0 -2 6 0 c 3.489 0 6 -2.55 6 -5 0 -1 -1 -2 -2 -2 -3 0 -6 5 -10 5 l -0.5 -1 c 0.831 0 1.5 -0.669 1.5 -1.5 0 -0.831 -0.669 -1.5 -1.5 -1.5 l -3 0 c -0.831 0 -1.5 0.669 -1.5 1.5 0 0.831 0.669 1.5 1.5 1.5 l -0.5 1 c -4 0 -7 -5 -10 -5 z" style="fill:#000;opacity:0.1;fill-opacity:1;stroke:none"/>
 <path d="m 23 26 2 0 0 11 -1 1 -1 -1 z" style="fill:#d03724;opacity:1;fill-opacity:1;stroke:none"/>
 <rect width="6" height="3" x="21" y="15" rx="1.5" style="fill:#ce9126;opacity:1;fill-opacity:1;stroke:none"/>
 <path d="m 22 19 2 -4 2 4 0 7 -1 1 -2 0 -1 -1 z" style="fill:#bc2025;opacity:1;fill-opacity:1;stroke:none"/>
 <path d="m 12 14 c -1 0 -2 1 -2 2 0 2.45 2.511 5 6 5 l 6 0 0 -2 c -4 0 -7 -5 -10 -5 z m 24 0 c -3 0 -6 5 -10 5 l 0 2 6 0 c 3.489 0 6 -2.55 6 -5 0 -1 -1 -2 -2 -2 z m -24 9 c -1 0 -2 0 -2 1 0 3 4 3 5.5 3 3.5 0 3.5 -2 6.5 -2 l 0 -2 z m 14 0 0 2 c 3 0 3 2 6.5 2 1.5 0 5.5 0 5.5 -3 0 -1 -1 -1 -2 -1 z" style="fill:#d6e2e6;opacity:1;fill-opacity:1;stroke:none"/>
 <path d="m 21.502 15.385 c -0.307 0.274 -0.502 0.67 -0.502 1.115 c 0 0.446 0.195 0.841 0.502 1.115 a 1.5 1.5 0 0 0 0.498 -1.115 a 1.5 1.5 0 0 0 -0.498 -1.115 z m 4.996 0 a 1.5 1.5 0 0 0 -0.498 1.115 a 1.5 1.5 0 0 0 0.498 1.115 c 0.307 -0.274 0.502 -0.67 0.502 -1.115 c 0 -0.446 -0.195 -0.841 -0.502 -1.115 z" style="fill:#000;opacity:1;fill-opacity:0.502;stroke:none"/>
</svg>
