<svg xmlns="http://www.w3.org/2000/svg" viewBox="0 0 48 48">
 <defs>
  <linearGradient id="linearGradient3764" x1="1" x2="47" gradientUnits="userSpaceOnUse" gradientTransform="matrix(0,-1,1,0,-1.5e-6,47.999998)">
   <stop style="stop-color:#68aa22;stop-opacity:1"/>
   <stop offset="1" style="stop-color:#73ba25;stop-opacity:1"/>
  </linearGradient>
 </defs>
 <g>
  <path d="m 36.31 5 c 5.859 4.062 9.688 10.831 9.688 18.5 c 0 12.426 -10.07 22.5 -22.5 22.5 c -7.669 0 -14.438 -3.828 -18.5 -9.688 c 1.037 1.822 2.306 3.499 3.781 4.969 c 4.085 3.712 9.514 5.969 15.469 5.969 c 12.703 0 23 -10.298 23 -23 c 0 -5.954 -2.256 -11.384 -5.969 -15.469 c -1.469 -1.475 -3.147 -2.744 -4.969 -3.781 z m 4.969 3.781 c 3.854 4.113 6.219 9.637 6.219 15.719 c 0 12.703 -10.297 23 -23 23 c -6.081 0 -11.606 -2.364 -15.719 -6.219 c 4.16 4.144 9.883 6.719 16.219 6.719 c 12.703 0 23 -10.298 23 -23 c 0 -6.335 -2.575 -12.06 -6.719 -16.219 z" style="opacity:0.05"/>
  <path d="m 41.28 8.781 c 3.712 4.085 5.969 9.514 5.969 15.469 c 0 12.703 -10.297 23 -23 23 c -5.954 0 -11.384 -2.256 -15.469 -5.969 c 4.113 3.854 9.637 6.219 15.719 6.219 c 12.703 0 23 -10.298 23 -23 c 0 -6.081 -2.364 -11.606 -6.219 -15.719 z" style="opacity:0.1"/>
  <path d="m 31.25 2.375 c 8.615 3.154 14.75 11.417 14.75 21.13 c 0 12.426 -10.07 22.5 -22.5 22.5 c -9.708 0 -17.971 -6.135 -21.12 -14.75 a 23 23 0 0 0 44.875 -7 a 23 23 0 0 0 -16 -21.875 z" style="opacity:0.2"/>
 </g>
 <g>
  <path d="m 24 1 c -8.852 0 -16.532 5 -20.377 12.334 l 1.627 23.979 c 4.169 5.86 11.01 9.688 18.75 9.688 c 12.703 0 23 -10.297 23 -23 c 0 -12.703 -10.297 -23 -23 -23 z" style="fill:url(#linearGradient3764);fill-opacity:1"/>
  <path d="m 12.568 12.988 l 0 0.002 l -0.006 0.01 l -0.094 0.031 l -0.031 0.063 c 0 0 -0.056 2.504 -0.064 2.781 c -0.41 -0.137 -1.672 -0.563 -3.5 -1.063 c -0.515 -0.132 -3.514 -0.413 -5.686 -0.611 c -1.403 2.973 -2.189 6.293 -2.189 9.799 c 0 5.454 1.901 10.462 5.072 14.404 c 1.216 -0.617 2.655 -1.346 2.74 -1.406 c 0.793 -0.57 3.349 -0.733 5.939 -0.438 c 1.242 0.141 2.664 0.309 4.125 0.344 c 4.086 0.023 8.476 -0.723 11.188 -1.906 c 1.754 -0.77 2.898 -1.3 3.594 -1.938 c 0.254 -0.207 0.367 -0.547 0.5 -0.906 l 0.105 -0.25 c 0.105 -0.293 0.301 -0.91 0.375 -1.25 c 0.023 -0.148 0.043 -0.293 -0.066 -0.375 l -0.375 0.064 c -1.188 0.711 -4.184 2.066 -6.969 2.125 c -3.449 0.07 -10.398 -3.477 -11.125 -3.848 l -0.066 -0.094 c -0.172 -0.418 -1.215 -2.887 -1.438 -3.406 c 5.01 3.297 9.164 5.121 12.344 5.406 c 3.535 0.313 6.289 -1.613 7.469 -2.438 c 0.23 -0.16 0.4 -0.289 0.475 -0.316 l 0.094 -0.125 c -0.195 -1.242 -2.07 -7.241 -3.469 -8.688 c -0.391 -0.398 -0.691 -0.789 -1.316 -1.156 c -5.05 -2.945 -17.06 -4.73 -17.625 -4.816 z m 13.432 5.01 a 5 5 0 0 1 5 5 a 5 5 0 0 1 -5 5 a 5 5 0 0 1 -5 -5 a 5 5 0 0 1 5 -5 z m 0 2 a 3 3 0 0 0 -3 3 a 3 3 0 0 0 3 3 a 3 3 0 0 0 3 -3 a 3 3 0 0 0 -3 -3 z m 0.5 1 a 1.5 1 0 0 1 1.5 1 a 1.5 1 0 0 1 -1.5 1 a 1.5 1 0 0 1 -1.5 -1 a 1.5 1 0 0 1 1.5 -1 z" style="fill:#000;opacity:0.1;fill-opacity:1"/>
  <path d="m 11.568 11.988 l 0 0.002 l -0.006 0.01 l -0.094 0.031 l -0.031 0.063 c 0 0 -0.056 2.504 -0.064 2.781 c -0.41 -0.137 -1.672 -0.563 -3.5 -1.063 c -0.384 -0.099 -2.331 -0.297 -4.252 -0.48 c -1.673 3.189 -2.623 6.815 -2.623 10.666 c 0 4.963 1.577 9.556 4.25 13.314 c 1.103 -0.56 2.484 -1.258 2.564 -1.314 c 0.793 -0.57 3.349 -0.733 5.939 -0.438 c 1.242 0.141 2.664 0.309 4.125 0.344 c 4.086 0.023 8.476 -0.723 11.188 -1.906 c 1.754 -0.77 2.898 -1.3 3.594 -1.938 c 0.254 -0.207 0.367 -0.547 0.5 -0.906 l 0.105 -0.25 c 0.105 -0.293 0.301 -0.91 0.375 -1.25 c 0.023 -0.148 0.043 -0.293 -0.066 -0.375 l -0.375 0.064 c -1.188 0.711 -4.184 2.066 -6.969 2.125 c -3.449 0.07 -10.398 -3.477 -11.125 -3.848 l -0.066 -0.094 c -0.172 -0.418 -1.213 -2.887 -1.438 -3.406 c 5.01 3.297 9.164 5.121 12.344 5.406 c 3.535 0.313 6.289 -1.613 7.469 -2.438 c 0.23 -0.16 0.398 -0.289 0.473 -0.316 l 0.094 -0.125 c -0.195 -1.242 -2.07 -7.241 -3.469 -8.688 c -0.391 -0.398 -0.691 -0.789 -1.316 -1.156 c -5.05 -2.945 -17.06 -4.73 -17.625 -4.816 z m 13.432 5.01 a 5 5 0 0 1 5 5 a 5 5 0 0 1 -5 5 a 5 5 0 0 1 -5 -5 a 5 5 0 0 1 5 -5 z m 0 2 a 3 3 0 0 0 -3 3 a 3 3 0 0 0 3 3 a 3 3 0 0 0 3 -3 a 3 3 0 0 0 -3 -3 z m 0.5 1 a 1.5 1 0 0 1 1.5 1 a 1.5 1 0 0 1 -1.5 1 a 1.5 1 0 0 1 -1.5 -1 a 1.5 1 0 0 1 1.5 -1 z" style="fill:#f9f9f9;fill-opacity:1"/>
 </g>
 <g>
  <g>
   <g transform="translate(1,1)">
    <g style="opacity:0.1">
     <!-- color: #73ba25 -->
    </g>
   </g>
  </g>
 </g>
 <g>
  <g>
   <!-- color: #73ba25 -->
  </g>
 </g>
 <g>
  <path d="m 40.03 7.531 c 3.712 4.084 5.969 9.514 5.969 15.469 0 12.703 -10.297 23 -23 23 c -5.954 0 -11.384 -2.256 -15.469 -5.969 4.178 4.291 10.01 6.969 16.469 6.969 c 12.703 0 23 -10.298 23 -23 0 -6.462 -2.677 -12.291 -6.969 -16.469 z" style="opacity:0.1"/>
 </g>
</svg>
