<svg xmlns="http://www.w3.org/2000/svg" viewBox="0 0 48 48">
 <defs>
  <linearGradient id="linearGradient3764" x1="1" x2="47" gradientUnits="userSpaceOnUse" gradientTransform="matrix(0,-1,1,0,-1.5e-6,47.999998)">
   <stop style="stop-color:#9891f3;stop-opacity:1"/>
   <stop offset="1" style="stop-color:#a8a2f5;stop-opacity:1"/>
  </linearGradient>
 </defs>
 <g>
  <path d="m 36.31 5 c 5.859 4.062 9.688 10.831 9.688 18.5 c 0 12.426 -10.07 22.5 -22.5 22.5 c -7.669 0 -14.438 -3.828 -18.5 -9.688 c 1.037 1.822 2.306 3.499 3.781 4.969 c 4.085 3.712 9.514 5.969 15.469 5.969 c 12.703 0 23 -10.298 23 -23 c 0 -5.954 -2.256 -11.384 -5.969 -15.469 c -1.469 -1.475 -3.147 -2.744 -4.969 -3.781 z m 4.969 3.781 c 3.854 4.113 6.219 9.637 6.219 15.719 c 0 12.703 -10.297 23 -23 23 c -6.081 0 -11.606 -2.364 -15.719 -6.219 c 4.16 4.144 9.883 6.719 16.219 6.719 c 12.703 0 23 -10.298 23 -23 c 0 -6.335 -2.575 -12.06 -6.719 -16.219 z" style="opacity:0.05"/>
  <path d="m 41.28 8.781 c 3.712 4.085 5.969 9.514 5.969 15.469 c 0 12.703 -10.297 23 -23 23 c -5.954 0 -11.384 -2.256 -15.469 -5.969 c 4.113 3.854 9.637 6.219 15.719 6.219 c 12.703 0 23 -10.298 23 -23 c 0 -6.081 -2.364 -11.606 -6.219 -15.719 z" style="opacity:0.1"/>
  <path d="m 31.25 2.375 c 8.615 3.154 14.75 11.417 14.75 21.13 c 0 12.426 -10.07 22.5 -22.5 22.5 c -9.708 0 -17.971 -6.135 -21.12 -14.75 a 23 23 0 0 0 44.875 -7 a 23 23 0 0 0 -16 -21.875 z" style="opacity:0.2"/>
 </g>
 <g>
  <path d="m 24 1 c 12.703 0 23 10.297 23 23 c 0 12.703 -10.297 23 -23 23 -12.703 0 -23 -10.297 -23 -23 0 -12.703 10.297 -23 23 -23 z" style="fill:url(#linearGradient3764);fill-opacity:1"/>
 </g>
 <g>
  <g>
   <g transform="translate(1,1)">
    <g style="opacity:0.1">
     <!-- color: #a8a2f5 -->
     <g>
      <path d="m 21.512 12.01 c -5.172 0.246 -9.223 4.918 -9.02 7.461 c 0.203 2.473 6.492 4.645 6.422 4.719 c -1.285 1.082 -2.137 1.813 -3.211 2.793 c -2.582 2.352 -4.367 4.094 -3.465 6.543 c 1.047 2.824 3.328 2.707 6.01 2.184 c 6.93 -1.363 18.316 -10.08 17.727 -13.297 c -0.477 -2.602 -6.836 -7.746 -10.605 -9.59 c -1.176 -0.574 -2.512 -0.875 -3.875 -0.813 m 1.086 4.465 c 0.648 -0.066 1.398 0.102 2.242 0.508 c 1.836 0.883 3.738 3.23 0 4.566 c -1.016 0.355 -4.27 -0.875 -4.176 -2.586 c 0.086 -1.586 0.855 -2.395 1.934 -2.488 m 0 0" style="fill:#000;fill-opacity:1;stroke:none;fill-rule:evenodd"/>
     </g>
    </g>
   </g>
  </g>
 </g>
 <g>
  <g>
   <!-- color: #a8a2f5 -->
   <g>
    <path d="m 21.512 12.01 c -5.172 0.246 -9.223 4.918 -9.02 7.461 c 0.203 2.473 6.492 4.645 6.422 4.719 c -1.285 1.082 -2.137 1.813 -3.211 2.793 c -2.582 2.352 -4.367 4.094 -3.465 6.543 c 1.047 2.824 3.328 2.707 6.01 2.184 c 6.93 -1.363 18.316 -10.08 17.727 -13.297 c -0.477 -2.602 -6.836 -7.746 -10.605 -9.59 c -1.176 -0.574 -2.512 -0.875 -3.875 -0.813 m 1.086 4.465 c 0.648 -0.066 1.398 0.102 2.242 0.508 c 1.836 0.883 3.738 3.23 0 4.566 c -1.016 0.355 -4.27 -0.875 -4.176 -2.586 c 0.086 -1.586 0.855 -2.395 1.934 -2.488 m 0 0" style="fill:#fff;fill-opacity:1;stroke:none;fill-rule:evenodd"/>
   </g>
  </g>
 </g>
 <g>
  <path d="m 40.03 7.531 c 3.712 4.084 5.969 9.514 5.969 15.469 0 12.703 -10.297 23 -23 23 c -5.954 0 -11.384 -2.256 -15.469 -5.969 4.178 4.291 10.01 6.969 16.469 6.969 c 12.703 0 23 -10.298 23 -23 0 -6.462 -2.677 -12.291 -6.969 -16.469 z" style="opacity:0.1"/>
 </g>
</svg>
