<svg xmlns="http://www.w3.org/2000/svg" viewBox="0 0 48 48">
 <defs>
  <linearGradient id="linearGradient3764" x1="1" x2="47" gradientUnits="userSpaceOnUse" gradientTransform="matrix(0,-1,1,0,-1.5e-6,47.999998)">
   <stop style="stop-color:#1791d1;stop-opacity:1"/>
   <stop offset="1" style="stop-color:#19a0e3;stop-opacity:1"/>
  </linearGradient>
 </defs>
 <g>
  <path d="m 36.31 5 c 5.859 4.062 9.688 10.831 9.688 18.5 c 0 12.426 -10.07 22.5 -22.5 22.5 c -7.669 0 -14.438 -3.828 -18.5 -9.688 c 1.037 1.822 2.306 3.499 3.781 4.969 c 4.085 3.712 9.514 5.969 15.469 5.969 c 12.703 0 23 -10.298 23 -23 c 0 -5.954 -2.256 -11.384 -5.969 -15.469 c -1.469 -1.475 -3.147 -2.744 -4.969 -3.781 z m 4.969 3.781 c 3.854 4.113 6.219 9.637 6.219 15.719 c 0 12.703 -10.297 23 -23 23 c -6.081 0 -11.606 -2.364 -15.719 -6.219 c 4.16 4.144 9.883 6.719 16.219 6.719 c 12.703 0 23 -10.298 23 -23 c 0 -6.335 -2.575 -12.06 -6.719 -16.219 z" style="opacity:0.05"/>
  <path d="m 41.28 8.781 c 3.712 4.085 5.969 9.514 5.969 15.469 c 0 12.703 -10.297 23 -23 23 c -5.954 0 -11.384 -2.256 -15.469 -5.969 c 4.113 3.854 9.637 6.219 15.719 6.219 c 12.703 0 23 -10.298 23 -23 c 0 -6.081 -2.364 -11.606 -6.219 -15.719 z" style="opacity:0.1"/>
  <path d="m 31.25 2.375 c 8.615 3.154 14.75 11.417 14.75 21.13 c 0 12.426 -10.07 22.5 -22.5 22.5 c -9.708 0 -17.971 -6.135 -21.12 -14.75 a 23 23 0 0 0 44.875 -7 a 23 23 0 0 0 -16 -21.875 z" style="opacity:0.2"/>
 </g>
 <g>
  <path d="m 24 1 c 12.703 0 23 10.297 23 23 c 0 12.703 -10.297 23 -23 23 -12.703 0 -23 -10.297 -23 -23 0 -12.703 10.297 -23 23 -23 z" style="fill:url(#linearGradient3764);fill-opacity:1"/>
 </g>
 <g>
  <g>
   <g transform="translate(1,1)">
    <g style="opacity:0.1">
     <!-- color: #19a0e3 -->
     <g>
      <path d="m 24 10 c -1.07 2.617 -1.715 4.332 -2.902 6.875 c 0.727 0.77 1.621 1.672 3.078 2.688 c -1.566 -0.641 -2.629 -1.289 -3.426 -1.957 c -1.523 3.176 -3.91 7.699 -8.75 16.395 c 3.805 -2.195 6.754 -3.551 9.504 -4.066 c -0.121 -0.508 -0.188 -1.055 -0.184 -1.629 l 0.004 -0.121 c 0.063 -2.438 1.328 -4.313 2.832 -4.184 c 1.5 0.125 2.668 2.207 2.609 4.645 c -0.012 0.457 -0.063 0.898 -0.156 1.309 c 2.719 0.531 5.637 1.887 9.391 4.055 c -0.738 -1.363 -1.402 -2.598 -2.031 -3.766 c -0.992 -0.77 -2.031 -1.77 -4.145 -2.852 c 1.453 0.379 2.492 0.813 3.305 1.301 c -6.414 -11.941 -6.934 -13.523 -9.133 -18.684 m 0.004 0" style="fill:#000;fill-opacity:1;stroke:none;fill-rule:evenodd"/>
     </g>
    </g>
   </g>
  </g>
 </g>
 <g>
  <g>
   <!-- color: #19a0e3 -->
   <g>
    <path d="m 24 10 c -1.07 2.617 -1.715 4.332 -2.902 6.875 c 0.727 0.77 1.621 1.672 3.078 2.688 c -1.566 -0.641 -2.629 -1.289 -3.426 -1.957 c -1.523 3.176 -3.91 7.699 -8.75 16.395 c 3.805 -2.195 6.754 -3.551 9.504 -4.066 c -0.121 -0.508 -0.188 -1.055 -0.184 -1.629 l 0.004 -0.121 c 0.063 -2.438 1.328 -4.313 2.832 -4.184 c 1.5 0.125 2.668 2.207 2.609 4.645 c -0.012 0.457 -0.063 0.898 -0.156 1.309 c 2.719 0.531 5.637 1.887 9.391 4.055 c -0.738 -1.363 -1.402 -2.598 -2.031 -3.766 c -0.992 -0.77 -2.031 -1.77 -4.145 -2.852 c 1.453 0.379 2.492 0.813 3.305 1.301 c -6.414 -11.941 -6.934 -13.523 -9.133 -18.684 m 0.004 0" style="fill:#f9f9f9;fill-opacity:1;stroke:none;fill-rule:evenodd"/>
   </g>
  </g>
 </g>
 <g>
  <path d="m 40.03 7.531 c 3.712 4.084 5.969 9.514 5.969 15.469 0 12.703 -10.297 23 -23 23 c -5.954 0 -11.384 -2.256 -15.469 -5.969 4.178 4.291 10.01 6.969 16.469 6.969 c 12.703 0 23 -10.298 23 -23 0 -6.462 -2.677 -12.291 -6.969 -16.469 z" style="opacity:0.1"/>
 </g>
</svg>
