<svg xmlns="http://www.w3.org/2000/svg" viewBox="0 0 48 48">
 <defs>
  <linearGradient id="linearGradient3764" x1="1" x2="47" gradientUnits="userSpaceOnUse" gradientTransform="matrix(0,-1,1,0,-1.5e-6,47.999998)">
   <stop style="stop-color:#333;stop-opacity:1"/>
   <stop offset="1" style="stop-color:#3d3d3d;stop-opacity:1"/>
  </linearGradient>
 </defs>
 <g>
  <path d="m 36.31 5 c 5.859 4.062 9.688 10.831 9.688 18.5 c 0 12.426 -10.07 22.5 -22.5 22.5 c -7.669 0 -14.438 -3.828 -18.5 -9.688 c 1.037 1.822 2.306 3.499 3.781 4.969 c 4.085 3.712 9.514 5.969 15.469 5.969 c 12.703 0 23 -10.298 23 -23 c 0 -5.954 -2.256 -11.384 -5.969 -15.469 c -1.469 -1.475 -3.147 -2.744 -4.969 -3.781 z m 4.969 3.781 c 3.854 4.113 6.219 9.637 6.219 15.719 c 0 12.703 -10.297 23 -23 23 c -6.081 0 -11.606 -2.364 -15.719 -6.219 c 4.16 4.144 9.883 6.719 16.219 6.719 c 12.703 0 23 -10.298 23 -23 c 0 -6.335 -2.575 -12.06 -6.719 -16.219 z" style="opacity:0.05"/>
  <path d="m 41.28 8.781 c 3.712 4.085 5.969 9.514 5.969 15.469 c 0 12.703 -10.297 23 -23 23 c -5.954 0 -11.384 -2.256 -15.469 -5.969 c 4.113 3.854 9.637 6.219 15.719 6.219 c 12.703 0 23 -10.298 23 -23 c 0 -6.081 -2.364 -11.606 -6.219 -15.719 z" style="opacity:0.1"/>
  <path d="m 31.25 2.375 c 8.615 3.154 14.75 11.417 14.75 21.13 c 0 12.426 -10.07 22.5 -22.5 22.5 c -9.708 0 -17.971 -6.135 -21.12 -14.75 a 23 23 0 0 0 44.875 -7 a 23 23 0 0 0 -16 -21.875 z" style="opacity:0.2"/>
 </g>
 <g>
  <path d="m 24 1 c 12.703 0 23 10.297 23 23 c 0 12.703 -10.297 23 -23 23 -12.703 0 -23 -10.297 -23 -23 0 -12.703 10.297 -23 23 -23 z" style="fill:url(#linearGradient3764);fill-opacity:1"/>
 </g>
 <g>
  <path d="m 40.03 7.531 c 3.712 4.084 5.969 9.514 5.969 15.469 0 12.703 -10.297 23 -23 23 c -5.954 0 -11.384 -2.256 -15.469 -5.969 4.178 4.291 10.01 6.969 16.469 6.969 c 12.703 0 23 -10.298 23 -23 0 -6.462 -2.677 -12.291 -6.969 -16.469 z" style="opacity:0.1"/>
 </g>
 <path d="m 31.33 15 c -0.72 0.07 -1.485 0.199 -2.282 0.371 l -5.05 5.281 c 0.579 0.071 1.109 0.188 1.593 0.353 z m 3.558 0.297 -6.992 7.304 c 1.966 2.595 1.274 7.808 -2.864 16.4 3.062 -3.404 16.634 -20.773 10.31 -23.507 m -9.771 0.833 c -0.967 0.313 -1.952 0.669 -2.933 1.047 l -3.344 3.493 c 0.767 -0.127 1.494 -0.212 2.179 -0.257 z m -5.01 1.879 c -6.101 2.556 -11.556 5.677 -11.556 5.677 c 3.241 -1.237 6.168 -2.162 8.722 -2.717 z" style="fill:#000;opacity:0.1;fill-opacity:1"/>
 <path d="m 30.33 14 c -0.72 0.07 -1.485 0.199 -2.282 0.371 l -5.05 5.281 c 0.579 0.071 1.109 0.188 1.593 0.353 z m 3.558 0.297 -6.992 7.304 c 1.966 2.595 1.274 7.808 -2.864 16.4 3.062 -3.404 16.634 -20.773 10.31 -23.507 m -9.771 0.833 c -0.967 0.313 -1.952 0.669 -2.933 1.047 l -3.344 3.493 c 0.767 -0.127 1.494 -0.212 2.179 -0.257 z m -5.01 1.879 c -6.101 2.556 -11.556 5.677 -11.556 5.677 3.241 -1.237 6.168 -2.162 8.722 -2.717" style="fill:#7b7fb1;fill-opacity:1"/>
</svg>
