<svg xmlns="http://www.w3.org/2000/svg" viewBox="0 0 48 48">
 <defs>
  <linearGradient id="linearGradient3764" x1="1" x2="47" gradientUnits="userSpaceOnUse" gradientTransform="matrix(0,-1,1,0,-1.5e-6,47.999998)">
   <stop style="stop-color:#e4e4e4;stop-opacity:1"/>
   <stop offset="1" style="stop-color:#eee;stop-opacity:1"/>
  </linearGradient>
 </defs>
 <g>
  <path d="m 36.31 5 c 5.859 4.062 9.688 10.831 9.688 18.5 c 0 12.426 -10.07 22.5 -22.5 22.5 c -7.669 0 -14.438 -3.828 -18.5 -9.688 c 1.037 1.822 2.306 3.499 3.781 4.969 c 4.085 3.712 9.514 5.969 15.469 5.969 c 12.703 0 23 -10.298 23 -23 c 0 -5.954 -2.256 -11.384 -5.969 -15.469 c -1.469 -1.475 -3.147 -2.744 -4.969 -3.781 z m 4.969 3.781 c 3.854 4.113 6.219 9.637 6.219 15.719 c 0 12.703 -10.297 23 -23 23 c -6.081 0 -11.606 -2.364 -15.719 -6.219 c 4.16 4.144 9.883 6.719 16.219 6.719 c 12.703 0 23 -10.298 23 -23 c 0 -6.335 -2.575 -12.06 -6.719 -16.219 z" style="opacity:0.05"/>
  <path d="m 41.28 8.781 c 3.712 4.085 5.969 9.514 5.969 15.469 c 0 12.703 -10.297 23 -23 23 c -5.954 0 -11.384 -2.256 -15.469 -5.969 c 4.113 3.854 9.637 6.219 15.719 6.219 c 12.703 0 23 -10.298 23 -23 c 0 -6.081 -2.364 -11.606 -6.219 -15.719 z" style="opacity:0.1"/>
  <path d="m 31.25 2.375 c 8.615 3.154 14.75 11.417 14.75 21.13 c 0 12.426 -10.07 22.5 -22.5 22.5 c -9.708 0 -17.971 -6.135 -21.12 -14.75 a 23 23 0 0 0 44.875 -7 a 23 23 0 0 0 -16 -21.875 z" style="opacity:0.2"/>
 </g>
 <g>
  <path d="m 24 1 c 12.703 0 23 10.297 23 23 c 0 12.703 -10.297 23 -23 23 -12.703 0 -23 -10.297 -23 -23 0 -12.703 10.297 -23 23 -23 z" style="fill:url(#linearGradient3764);fill-opacity:1"/>
 </g>
 <g>
  <path d="m 40.03 7.531 c 3.712 4.084 5.969 9.514 5.969 15.469 0 12.703 -10.297 23 -23 23 c -5.954 0 -11.384 -2.256 -15.469 -5.969 4.178 4.291 10.01 6.969 16.469 6.969 c 12.703 0 23 -10.298 23 -23 0 -6.462 -2.677 -12.291 -6.969 -16.469 z" style="opacity:0.1"/>
 </g>
 <path d="m 32.428 14 c -4.643 0 -9.286 3 -13 3 -1.763 0 -3.175 -0.498 -4.428 -1 l 3 6 c 0.834 0.189 1.843 0.357 3.285 0.357 4.643 0 9.215 -5.782 15.715 -4.357 -1.857 -1.437 -6.344 -2.048 -11 0 2.584 -1.662 7.563 -3.58 12 -3 -1.714 -1 -3.114 -1 -5.572 -1 z m -19.521 0.002 c -0.122 0.006 -0.243 0.034 -0.359 0.09 l -0.023 0.012 c -0.466 0.222 -0.656 0.772 -0.426 1.234 l 12.03 24.14 c 0.23 0.462 0.792 0.656 1.258 0.434 l 0.023 -0.012 c 0.466 -0.222 0.654 -0.774 0.424 -1.236 l -12.03 -24.13 c -0.173 -0.347 -0.531 -0.541 -0.896 -0.523 z" style="fill:#000;opacity:0.1;fill-opacity:1;stroke:none"/>
 <rect width="1.889" height="28.832" x="3.537" y="16.791" transform="matrix(0.90248022,-0.4307313,0.44608144,0.89499237,0,0)" rx="0.932" style="fill:#777;opacity:1;fill-opacity:1;stroke:none"/>
 <path d="m 31.429 13 c -4.643 0 -9.286 3 -13 3 -1.763 0 -3.176 -0.498 -4.429 -1 l 3 6 c 0.834 0.189 1.844 0.357 3.286 0.357 4.643 0 9.214 -5.782 15.714 -4.357 -1.857 -1.437 -6.344 -2.048 -11 0 2.584 -1.662 7.563 -3.58 12 -3 -1.714 -1 -3.113 -1 -5.571 -1 z" style="fill:#f26711;opacity:1;fill-opacity:1;stroke:none"/>
</svg>
