<?xml version="1.0" encoding="UTF-8"?>
<svg height="16px" viewBox="0 0 16 16" width="16px" xmlns="http://www.w3.org/2000/svg" xmlns:xlink="http://www.w3.org/1999/xlink">
    <filter id="a" height="100%" width="100%" x="0%" y="0%">
        <feColorMatrix color-interpolation-filters="sRGB" values="0 0 0 0 1 0 0 0 0 1 0 0 0 0 1 0 0 0 1 0"/>
    </filter>
    <mask id="b">
        <g filter="url(#a)">
            <path d="m -1.6 -1.6 h 19.2 v 19.2 h -19.2 z" fill-opacity="0.5"/>
        </g>
    </mask>
    <clipPath id="c">
        <path d="m 0 0 h 1600 v 1200 h -1600 z"/>
    </clipPath>
    <mask id="d">
        <g filter="url(#a)">
            <path d="m -1.6 -1.6 h 19.2 v 19.2 h -19.2 z" fill-opacity="0.7"/>
        </g>
    </mask>
    <clipPath id="e">
        <path d="m 0 0 h 1600 v 1200 h -1600 z"/>
    </clipPath>
    <mask id="f">
        <g filter="url(#a)">
            <path d="m -1.6 -1.6 h 19.2 v 19.2 h -19.2 z" fill-opacity="0.35"/>
        </g>
    </mask>
    <clipPath id="g">
        <path d="m 0 0 h 1600 v 1200 h -1600 z"/>
    </clipPath>
    <g mask="url(#b)">
        <g clip-path="url(#c)" transform="matrix(1 0 0 1 -180 -416)">
            <path d="m 550 182 c -0.351562 0.003906 -0.695312 0.101562 -1 0.28125 v 3.4375 c 0.304688 0.179688 0.648438 0.277344 1 0.28125 c 1.105469 0 2 -0.894531 2 -2 s -0.894531 -2 -2 -2 z m 0 5 c -0.339844 0 -0.679688 0.058594 -1 0.175781 v 6.824219 h 4 v -4 c 0 -1.65625 -1.34375 -3 -3 -3 z m 0 0"/>
        </g>
    </g>
    <g mask="url(#d)">
        <g clip-path="url(#e)" transform="matrix(1 0 0 1 -180 -416)">
            <path d="m 569 182 v 4 c 1.105469 0 2 -0.894531 2 -2 s -0.894531 -2 -2 -2 z m 0 5 v 7 h 3 v -4 c 0 -1.65625 -1.34375 -3 -3 -3 z m 0 0"/>
        </g>
    </g>
    <g mask="url(#f)">
        <g clip-path="url(#g)" transform="matrix(1 0 0 1 -180 -416)">
            <path d="m 573 182.269531 v 3.449219 c 0.613281 -0.355469 0.996094 -1.007812 1 -1.71875 c 0 -0.714844 -0.382812 -1.375 -1 -1.730469 z m 0 4.90625 v 6.824219 h 2 v -4 c 0 -1.269531 -0.800781 -2.402344 -2 -2.824219 z m 0 0"/>
        </g>
    </g>
    <path d="m 8 1.007812 c -2.050781 0 -4.097656 0.777344 -5.65625 2.335938 c -3.117188 3.117188 -3.117188 8.195312 0 11.3125 c 0.390625 0.390625 1.023438 0.390625 1.414062 0 c 0.25 -0.253906 0.351563 -0.621094 0.257813 -0.964844 l 0.804687 -0.804687 l -0.707031 -0.707031 l -0.691406 0.691406 c -0.835937 -0.984375 -1.304687 -2.164063 -1.402344 -3.371094 h 0.980469 v -1 h -0.980469 c 0.09375 -1.148438 0.523438 -2.273438 1.28125 -3.226562 c 0.039063 0.097656 0.097657 0.183593 0.167969 0.257812 l 2.6875 2.6875 c -0.101562 0.246094 -0.15625 0.511719 -0.15625 0.78125 c 0 1.105469 0.894531 2 2 2 s 2 -0.894531 2 -2 s -0.894531 -2 -2 -2 c -0.265625 0 -0.53125 0.054688 -0.777344 0.160156 l -2.691406 -2.691406 c -0.074219 -0.074219 -0.164062 -0.128906 -0.261719 -0.167969 c 0.957031 -0.761719 2.082031 -1.1875 3.230469 -1.28125 v 0.980469 h 1 v -0.980469 c 1.207031 0.097657 2.386719 0.566407 3.371094 1.402344 l -0.691406 0.691406 l 0.707031 0.707031 l 0.691406 -0.691406 c 0.835937 0.984375 1.304687 2.164063 1.402344 3.371094 h -0.980469 v 1 h 0.980469 c -0.097657 1.207031 -0.566407 2.386719 -1.402344 3.371094 l -0.691406 -0.691406 l -0.707031 0.707031 l 0.804687 0.804687 c -0.09375 0.34375 0.007813 0.710938 0.257813 0.964844 c 0.390624 0.390625 1.023437 0.390625 1.414062 0 c 3.117188 -3.117188 3.117188 -8.195312 0 -11.3125 c -1.558594 -1.558594 -3.605469 -2.335938 -5.65625 -2.335938 z m 0 0" fill="#222222"/>
</svg>
