<svg xmlns="http://www.w3.org/2000/svg" xmlns:xlink="http://www.w3.org/1999/xlink" width="128" height="128" version="1.0"><defs><linearGradient id="d"><stop offset="0" stop-color="#cfcfcc"/><stop offset=".037" stop-color="#e8e8e8" stop-opacity=".98"/><stop offset=".074" stop-color="#d0d0cc"/><stop offset=".923" stop-color="#d0d0cc"/><stop offset=".962" stop-color="#e8e8e8"/><stop offset="1" stop-color="#d0d0cc"/></linearGradient><linearGradient id="c"><stop offset="0" stop-color="#cfcfcc"/><stop offset=".037" stop-color="#e3e3e3" stop-opacity=".98"/><stop offset=".074" stop-color="#d0d0cc"/><stop offset=".923" stop-color="#d0d0cc"/><stop offset=".962" stop-color="#e3e3e3"/><stop offset="1" stop-color="#d0d0cc"/></linearGradient><linearGradient id="a"><stop offset="0" stop-color="#f6f5f4"/><stop offset="1" stop-color="#e1dfdd"/></linearGradient><linearGradient id="b"><stop offset="0" stop-color="#f6f5f4"/><stop offset=".333" stop-color="#fdfdfd"/><stop offset="1" stop-color="#c9c6c1"/></linearGradient><linearGradient xlink:href="#a" id="g" x1="55" y1="65" x2="64" y2="65" gradientUnits="userSpaceOnUse"/><linearGradient xlink:href="#b" id="f" x1="73" y1="65" x2="65" y2="65" gradientUnits="userSpaceOnUse"/><linearGradient xlink:href="#d" id="e" gradientUnits="userSpaceOnUse" x1="10" y1="106" x2="118" y2="106"/></defs><g transform="translate(0 -172)"><rect ry="8" y="208" x="63" height="80" width="57" fill="#20baba"/><rect width="57" height="80" x="8" y="36" ry="8" transform="translate(0 172)" fill="#20baba"/><path transform="translate(0 172)" d="M18 36h92c4.432 0 8 3.568 8 8v60c0 4.432-3.568 8-8 8H18c-4.432 0-8-3.568-8-8V44c0-4.432 3.568-8 8-8z" fill="url(#e)"/><path style="marker:none" d="M72 28c-4.432 0-8 3.568-8 8v76c0-4.432 3.568-8 8-8h38c4.432 0 8-3.568 8-8V36c0-4.432-3.568-8-8-8z" transform="translate(0 172)" fill="url(#f)"/><path d="M56 28c4.432 0 8 3.568 8 8v76c0-4.432-3.568-8-8-8H18c-4.432 0-8-3.568-8-8V36c0-4.432 3.568-8 8-8z" style="marker:none" transform="translate(0 172)" fill="url(#g)"/><rect width="24" height="4" x="76" y="212" ry="0" fill="#0cc"/><rect width="32" height="4" x="76" y="48" ry="0" transform="translate(0 172)" fill="#deddda"/><rect ry="0" y="56" x="76" height="4" width="32" transform="translate(0 172)" fill="#deddda"/><rect width="32" height="4" x="76" y="64" ry="0" transform="translate(0 172)" fill="#deddda"/><rect ry="0" y="72" x="76" height="4" width="32" transform="translate(0 172)" fill="#deddda"/><rect width="32" height="4" x="76" y="80" ry="0" transform="translate(0 172)" fill="#deddda"/><rect ry="0" y="88" x="76" height="4" width="21.333" transform="translate(0 172)" fill="#deddda"/><rect ry="0" y="64" x="20" height="4" width="32" transform="translate(0 172)" fill="#deddda"/><rect width="32" height="4" x="20" y="72" ry="0" transform="translate(0 172)" fill="#deddda"/><rect ry="0" y="80" x="20" height="4" width="32" transform="translate(0 172)" fill="#deddda"/><rect width="21.333" height="4" x="20" y="88" ry="0" transform="translate(0 172)" fill="#deddda"/><rect width="32" height="4" x="20" y="64" ry="0" transform="translate(0 172)" fill="#deddda"/><rect ry="0" y="72" x="20" height="4" width="32" transform="translate(0 172)" fill="#deddda"/><rect width="32" height="4" x="20" y="80" ry="0" transform="translate(0 172)" fill="#deddda"/><rect ry="0" y="88" x="20" height="4" width="32" transform="translate(0 172)" fill="#deddda"/><path d="M26.089 186.835s-8.232 20.437-8.208 31.187c.018 8 1.102 17.027 6.212 23.182 3.926 4.729 16.629 7.967 16.629 7.967l4.14 15.455 3.864-1.035-4.14-15.455s9.38-9.156 10.416-15.214c1.348-7.886-2.227-16.246-6.211-23.183-5.354-9.321-22.702-22.904-22.702-22.904z" fill="#0cc"/><path d="M44.8 264.673l3.864-1.036-7.247-27.046 7.071-12.247-2.45-1.414-5.656 9.798-2.07-7.728 5.656-9.798-2.45-1.414-4.242 7.349-1.553-5.796 4.243-7.348-2.45-1.415-2.828 4.9L31 198l-3.864 1.035 3.688 13.478-4.899-2.829-1.414 2.45 7.349 4.242 1.553 5.796-7.349-4.243-1.414 2.45 9.798 5.657 2.07 7.727-9.798-5.657-1.414 2.45 12.248 7.07z" fill="#20baba"/></g></svg>