<?xml version="1.0" encoding="UTF-8" standalone="no"?>
<svg
   xmlns:dc="http://purl.org/dc/elements/1.1/"
   xmlns:cc="http://creativecommons.org/ns#"
   xmlns:rdf="http://www.w3.org/1999/02/22-rdf-syntax-ns#"
   xmlns:svg="http://www.w3.org/2000/svg"
   xmlns="http://www.w3.org/2000/svg"
   xmlns:sodipodi="http://sodipodi.sourceforge.net/DTD/sodipodi-0.dtd"
   xmlns:inkscape="http://www.inkscape.org/namespaces/inkscape"
   height="16"
   id="svg7384"
   version="1.1"
   width="16"
   sodipodi:docname="com.github.johnfactotum.Foliate-symbolic.svg"
   inkscape:version="0.92.4 5da689c313, 2019-01-14">
  <metadata
     id="metadata10">
    <rdf:RDF>
      <cc:Work
         rdf:about="">
        <dc:format>image/svg+xml</dc:format>
        <dc:type
           rdf:resource="http://purl.org/dc/dcmitype/StillImage" />
      </cc:Work>
    </rdf:RDF>
  </metadata>
  <defs
     id="defs8" />
  <sodipodi:namedview
     pagecolor="#ffffff"
     bordercolor="#666666"
     borderopacity="1"
     objecttolerance="10"
     gridtolerance="10"
     guidetolerance="10"
     inkscape:pageopacity="0"
     inkscape:pageshadow="2"
     inkscape:window-width="1435"
     inkscape:window-height="946"
     id="namedview6"
     showgrid="true"
     inkscape:zoom="45.254834"
     inkscape:cx="6.4984958"
     inkscape:cy="8"
     inkscape:window-x="162"
     inkscape:window-y="45"
     inkscape:window-maximized="0"
     inkscape:current-layer="g1076">
    <inkscape:grid
       type="xygrid"
       id="grid4520" />
  </sodipodi:namedview>
  <g
     transform="translate(-0.27148438,3.865234)"
     id="g828">
    <g
       transform="rotate(-90,0.70338983,172.4322)"
       id="g1076"
       style="display:inline;enable-background:new">
      <path
         id="rect4526"
         transform="rotate(90)"
         style="fill:#000000;fill-opacity:1"
         d="m 180.00029,-173.00082 h 1 v 9 l -1,0 c 1e-5,-3 0,-6 0,-9 z m -1.33146,-1.08839 c 0.40827,1.15154 0.35385,2.54215 -0.13258,3.66291 -0.19547,0.45037 -1.03877,1.0442 -1.03877,1.0442 l 0.50282,2.38127 -1e-5,1.00001 h -1 l -0.60225,-3 c 0,0 -1.44194,-0.42269 -1.95018,-0.93371 -0.79704,-0.8014 -1.20032,-1.96339 -1.44757,-3.06629 -0.14584,-0.65052 -0.15317,-1.35117 0,-2 0.17125,-0.72542 1,-2 1,-2 0,0 2.12263,0.41576 3,1 0.70399,0.46879 1.38591,1.11444 1.66854,1.91161 z m 7.33146,0.0884 c 1.108,0 2,0.892 2,2 v 8 c 0,1.108 -0.892,2 -2,2 h -12 c -1.108,0 -2,-0.892 -2,-2 v -8 l 1,2.99999 v 5 h 14 v -9 h -7 v -0.99999 z"
         inkscape:connector-curvature="0"
         sodipodi:nodetypes="cccccsccccccscsccssssssscccccccs" />
    </g>
  </g>
</svg>
