<?xml version="1.0" encoding="UTF-8" standalone="no"?>
<svg
   xmlns:dc="http://purl.org/dc/elements/1.1/"
   xmlns:cc="http://creativecommons.org/ns#"
   xmlns:rdf="http://www.w3.org/1999/02/22-rdf-syntax-ns#"
   xmlns:svg="http://www.w3.org/2000/svg"
   xmlns="http://www.w3.org/2000/svg"
   xmlns:xlink="http://www.w3.org/1999/xlink"
   xmlns:sodipodi="http://sodipodi.sourceforge.net/DTD/sodipodi-0.dtd"
   xmlns:inkscape="http://www.inkscape.org/namespaces/inkscape"
   id="svg8"
   version="1.1"
   viewBox="0 0 110 73.000002"
   height="128"
   width="128"
   sodipodi:docname="4.svg"
   inkscape:version="0.92.4 (5da689c313, 2019-01-14)">
  <sodipodi:namedview
     pagecolor="#ffffff"
     bordercolor="#666666"
     borderopacity="1"
     objecttolerance="10"
     gridtolerance="10"
     guidetolerance="10"
     inkscape:pageopacity="0"
     inkscape:pageshadow="2"
     inkscape:window-width="1366"
     inkscape:window-height="731"
     id="namedview191"
     showgrid="false"
     inkscape:zoom="2.9610096"
     inkscape:cx="90.15223"
     inkscape:cy="85.670388"
     inkscape:window-x="0"
     inkscape:window-y="0"
     inkscape:window-maximized="1"
     inkscape:current-layer="layer1" />
  <defs
     id="defs2">
    <linearGradient
       id="linearGradient4617">
      <stop
         id="stop4613"
         offset="0"
         style="stop-color:#f9f9f9;stop-opacity:1;" />
      <stop
         id="stop4615"
         offset="1"
         style="stop-color:#f9f9f9;stop-opacity:0;" />
    </linearGradient>
    <linearGradient
       gradientTransform="matrix(1.0286517,0,0,1.0542081,-0.71668053,-13.918342)"
       gradientUnits="userSpaceOnUse"
       y2="258.01471"
       x2="70.126152"
       y1="257.71136"
       x1="43.778748"
       id="linearGradient4619"
       xlink:href="#linearGradient4617" />
  </defs>
  <metadata
     id="metadata5">
    <rdf:RDF>
      <cc:Work
         rdf:about="">
        <dc:format>image/svg+xml</dc:format>
        <dc:type
           rdf:resource="http://purl.org/dc/dcmitype/StillImage" />
        <dc:title />
      </cc:Work>
    </rdf:RDF>
  </metadata>
  <g
     transform="translate(0,-224)"
     id="layer1">
    <rect
       rx="1.6253299"
       ry="1.6253299"
       y="226.21503"
       x="0.80902433"
       height="68.280632"
       width="108.38195"
       id="rect58"
       style="fill:#554400;stroke:#000000;stroke-width:0.75867367;stroke-miterlimit:4;stroke-dasharray:none;stroke-opacity:1" />
    <path
       id="rect4572-3"
       d="m 54.473317,230.00768 c -0.01801,-3.21795 -0.06198,-1.75243 -48.3466285,-1.95248 v 64.30669 c 48.2308935,0.29584 48.2475535,1.57162 48.2756705,-1.13406 z"
       style="fill:url(#linearGradient4619);fill-opacity:1;stroke:none;stroke-width:1.04589713;stroke-miterlimit:4;stroke-dasharray:none;stroke-opacity:1"
       inkscape:connector-curvature="0" />
    <path
       id="rect4572-3-6"
       d="m 54.314697,229.83061 c -0.01528,-3.20353 -0.07728,-1.58428 50.607233,-1.95705 v 64.45735 c -50.568175,0.035 -50.542285,1.61973 -50.532959,-1.13673 z"
       style="fill:#f9f9f9;stroke:none;stroke-width:1.07132292;stroke-miterlimit:4;stroke-dasharray:none;stroke-opacity:1"
       inkscape:connector-curvature="0" />
    <g
       id="text4623"
       style="font-style:normal;font-weight:normal;font-size:7.3436265px;line-height:1.25;font-family:sans-serif;letter-spacing:0px;word-spacing:0px;fill:#000000;fill-opacity:1;stroke:none;stroke-width:0.18359067"
       transform="matrix(2.0830453,0,0,2.6626108,-71.330158,-420.76505)"
       aria-label="Chapter I">
      <path
         id="path4654"
         style="font-style:normal;font-variant:normal;font-weight:normal;font-stretch:normal;font-family:Uroob;-inkscape-font-specification:Uroob;stroke-width:0.18359067"
         d="m 64.694631,258.66483 q 0,-0.34424 -0.283275,-0.34782 h -0.631092 q -0.139845,0 -0.204388,0.0896 -0.06454,0.0897 -0.06454,0.21873 v 2.85068 q 0,0.12909 0.06454,0.21873 0.06454,0.0896 0.204388,0.0896 h 0.631092 q 0.276104,0 0.283275,-0.31913 0,-0.0861 0,-0.16494 h 0.649022 v 0.29403 q 0,0.32272 -0.233074,0.53786 -0.233074,0.21156 -0.548621,0.21156 h -0.824723 q -0.333476,0 -0.602407,-0.21156 -0.272518,-0.21156 -0.272518,-0.53786 v -3.08734 q 0,-0.3263 0.272518,-0.54145 0.272517,-0.21514 0.602407,-0.21514 h 0.824723 q 0.319132,0 0.552207,0.21873 0.229488,0.21873 0.229488,0.53786 v 0.32989 h -0.649022 z"
         inkscape:connector-curvature="0" />
      <path
         id="path4656"
         style="font-style:normal;font-variant:normal;font-weight:normal;font-stretch:normal;font-family:Uroob;-inkscape-font-specification:Uroob;stroke-width:0.18359067"
         d="m 68.029383,262.34023 h -0.613164 v -2.63553 q 0,-0.13626 -0.07889,-0.22949 -0.0753,-0.0968 -0.222317,-0.0968 h -0.451805 q -0.147016,0 -0.251003,0.11116 -0.107573,0.11116 -0.107573,0.251 v 2.59968 h -0.613164 l -0.0036,-4.56826 h 0.620336 v 1.20123 q 0.132673,-0.1255 0.311961,-0.1255 h 0.573721 q 0.315546,0 0.577306,0.21156 0.258174,0.21156 0.258174,0.52711 z"
         inkscape:connector-curvature="0" />
      <path
         id="path4658"
         style="font-style:normal;font-variant:normal;font-weight:normal;font-stretch:normal;font-family:Uroob;-inkscape-font-specification:Uroob;stroke-width:0.18359067"
         d="m 70.223866,259.68318 q 0,-0.3012 -0.290446,-0.3012 h -0.652608 q -0.107572,0 -0.16853,0.0681 -0.05737,0.0645 -0.06096,0.16853 h -0.61675 q 0.0072,-0.32631 0.21156,-0.55221 0.204388,-0.2259 0.519934,-0.2259 h 0.957397 q 0.308375,0 0.505591,0.22232 0.197217,0.22231 0.197217,0.54144 v 2.73952 H 70.22745 v -0.13984 q -0.193631,0.1506 -0.38009,0.1506 h -0.588064 q -0.326304,0 -0.59165,-0.21156 -0.265346,-0.21156 -0.265346,-0.51994 v -0.68129 q 0,-0.31555 0.265346,-0.52711 0.265346,-0.21155 0.59165,-0.21155 h 0.695636 q 0.14343,0 0.268932,0.0789 z m -0.01076,1.82156 v -0.44463 q 0,-0.13626 -0.07889,-0.22949 -0.0753,-0.0968 -0.222317,-0.0968 h -0.609578 q -0.150602,0 -0.218731,0.0968 -0.06813,0.0932 -0.06813,0.22949 v 0.44463 q 0,0.13626 0.06813,0.23308 0.06813,0.0932 0.218731,0.0932 h 0.609578 q 0.147016,0 0.222317,-0.0932 0.07889,-0.0968 0.07889,-0.23308 z"
         inkscape:connector-curvature="0" />
      <path
         id="path4660"
         style="font-style:normal;font-variant:normal;font-weight:normal;font-stretch:normal;font-family:Uroob;-inkscape-font-specification:Uroob;stroke-width:0.18359067"
         d="m 71.751398,259.0234 q 0.233074,-0.16853 0.519934,-0.16853 h 0.251003 q 0.455391,0 0.727909,0.26176 0.272517,0.26176 0.272517,0.72432 v 1.43431 q 0,0.753 -0.505592,0.98249 -0.175702,0.0789 -0.423119,0.0789 h -0.394433 q -0.233074,0 -0.394433,-0.1757 v 1.75343 h -0.620335 l 0.0036,-5.0595 h 0.562964 z m 1.158199,2.20524 v -1.30163 q 0,-0.27969 -0.06096,-0.37292 -0.111158,-0.17211 -0.369333,-0.17211 h -0.308375 q -0.111158,0 -0.240245,0.0789 -0.125502,0.0789 -0.125502,0.18646 v 1.80364 q 0,0.10757 0.132673,0.23307 0.132673,0.12192 0.233074,0.12192 h 0.308375 q 0.35499,0 0.412362,-0.35499 0.01434,-0.10399 0.01793,-0.22232 z"
         inkscape:connector-curvature="0" />
      <path
         id="path4662"
         style="font-style:normal;font-variant:normal;font-weight:normal;font-stretch:normal;font-family:Uroob;-inkscape-font-specification:Uroob;stroke-width:0.18359067"
         d="m 74.720402,261.60156 q 0,0.26535 0.286861,0.26535 0.290446,0 0.322718,-0.30121 h 0.132673 v 0.64902 q -0.23666,0.21515 -0.552206,0.21515 -0.59165,0 -0.778109,-0.44463 -0.06096,-0.14343 -0.06096,-0.34065 v -2.14787 h -0.26176 v -0.54145 h 0.26176 v -0.68488 H 74.7204 v 0.68488 h 0.494835 v 0.54145 H 74.7204 Z"
         inkscape:connector-curvature="0" />
      <path
         id="path4664"
         style="font-style:normal;font-variant:normal;font-weight:normal;font-stretch:normal;font-family:Uroob;-inkscape-font-specification:Uroob;stroke-width:0.18359067"
         d="m 78.151971,261.5406 q -0.01076,0.54145 -0.419534,0.73867 -0.136258,0.0645 -0.31196,0.0645 h -0.849824 q -0.319132,0 -0.527106,-0.22949 -0.21156,-0.22949 -0.21156,-0.5522 v -1.95783 q 0,-0.31913 0.193631,-0.54862 0.193631,-0.22948 0.509177,-0.22948 h 0.910782 q 0.319132,0 0.509177,0.24383 0.190045,0.24383 0.190045,0.57013 v 0.46615 q 0,0.31555 -0.175702,0.54145 -0.175702,0.22232 -0.487662,0.22232 h -1.047041 v 0.64902 q 0,0.28686 0.290446,0.28686 h 0.545035 q 0.121916,0 0.193631,-0.0681 0.0753,-0.0717 0.07172,-0.19722 z m -1.427131,-2.15862 q -0.290446,0 -0.290446,0.3012 v 0.65619 h 0.78528 q 0.136259,0 0.229489,-0.0753 0.09682,-0.0789 0.09682,-0.2259 v -0.36933 q 0,-0.1506 -0.09682,-0.21873 -0.09323,-0.0681 -0.229489,-0.0681 z"
         inkscape:connector-curvature="0" />
      <path
         id="path4666"
         style="font-style:normal;font-variant:normal;font-weight:normal;font-stretch:normal;font-family:Uroob;-inkscape-font-specification:Uroob;stroke-width:0.18359067"
         d="m 80.066763,259.37839 -0.362161,-0.004 q -0.451805,0 -0.588064,0.3263 -0.04662,0.11116 -0.04662,0.25459 v 2.38453 h -0.613164 l -0.0036,-3.17698 q -0.157774,0 -0.157774,-0.11833 v -0.20798 h 0.706394 v 0.32631 q 0.0502,-0.14343 0.182874,-0.23666 0.132672,-0.0932 0.283274,-0.0932 h 0.598821 z"
         inkscape:connector-curvature="0" />
      <path
         id="path4668"
         style="font-style:normal;font-variant:normal;font-weight:normal;font-stretch:normal;font-family:Uroob;-inkscape-font-specification:Uroob;stroke-width:0.18359067"
         d="m 83.114655,262.34381 h -0.659779 v -4.40331 q 0,-0.0717 0.05379,-0.1255 0.05379,-0.0538 0.125502,-0.0538 h 0.301203 q 0.07171,0 0.125501,0.0538 0.05379,0.0538 0.05379,0.1255 z"
         inkscape:connector-curvature="0" />
      <path
         id="path4668-3"
         style="font-style:normal;font-variant:normal;font-weight:normal;font-stretch:normal;font-size:7.3436265px;line-height:1.25;font-family:Uroob;-inkscape-font-specification:Uroob;letter-spacing:0px;word-spacing:0px;fill:#000000;fill-opacity:1;stroke:none;stroke-width:0.18359067"
         d="m 81.578532,262.31933 h -0.659779 v -4.40331 q 0,-0.0717 0.05379,-0.1255 0.05379,-0.0538 0.125502,-0.0538 h 0.301203 q 0.07171,0 0.125501,0.0538 0.05379,0.0538 0.05379,0.1255 z"
         inkscape:connector-curvature="0" />
    </g>
    <rect
       y="229.84221"
       x="4.8756409"
       height="60.847927"
       width="1.9299977"
       id="rect4734"
       style="fill:#f9f9f9;stroke:none;stroke-width:0.56616282;stroke-miterlimit:4;stroke-dasharray:none;stroke-opacity:1" />
    <rect
       y="231.20673"
       x="3.8033075"
       height="58.010166"
       width="1.5761207"
       id="rect4734-5-8"
       style="fill:#f9f9f9;stroke:none;stroke-width:0.49955922;stroke-miterlimit:4;stroke-dasharray:none;stroke-opacity:1" />
    <rect
       y="229.36586"
       x="103.74627"
       height="60.83762"
       width="2.2764022"
       id="rect4734-5-8-3"
       style="fill:#f9f9f9;stroke:none;stroke-width:0.614824;stroke-miterlimit:4;stroke-dasharray:none;stroke-opacity:1" />
    <rect
       y="230.79938"
       x="104.683"
       height="57.055714"
       width="2.2764022"
       id="rect4734-5-8-3-3"
       style="fill:#f9f9f9;stroke:none;stroke-width:0.59540749;stroke-miterlimit:4;stroke-dasharray:none;stroke-opacity:1" />
    <path
       id="rect4796"
       d="m 38.936239,227.76403 h 4.335278 v 40.67369 l -2.143825,-2.18657 -2.191453,2.18657 z"
       style="fill:#d40000;stroke:none;stroke-width:0.6403712;stroke-miterlimit:4;stroke-dasharray:none;stroke-opacity:1"
       inkscape:connector-curvature="0" />
    <path
       id="path4799"
       d="M 39.558593,228.01646 H 43.44181"
       style="fill:#b11313;fill-opacity:1;stroke:#e48e63;stroke-width:0.16257294;stroke-linecap:butt;stroke-linejoin:round;stroke-miterlimit:4;stroke-dasharray:0.65029171, 0.65029171;stroke-dashoffset:0;stroke-opacity:1"
       inkscape:connector-curvature="0" />
    <path
       id="path4803"
       d="m 39.147532,228.18 -0.0039,39.39413"
       style="fill:none;stroke:#e48e63;stroke-width:0.1515052;stroke-linecap:butt;stroke-linejoin:miter;stroke-miterlimit:4;stroke-dasharray:0.60602079, 0.60602079;stroke-dashoffset:0;stroke-opacity:1"
       inkscape:connector-curvature="0" />
    <path
       id="path4803-1"
       d="m 43.080341,228.15268 -0.0039,39.39412"
       style="fill:none;stroke:#e48e63;stroke-width:0.15150522;stroke-linecap:butt;stroke-linejoin:miter;stroke-miterlimit:4;stroke-dasharray:0.60602079, 0.60602079;stroke-dashoffset:0;stroke-opacity:1"
       inkscape:connector-curvature="0" />
    <path
       id="path4799-9"
       d="m 39.160704,267.90608 2.443465,-2.43961"
       style="fill:#b11313;fill-opacity:1;stroke:#e48e63;stroke-width:0.15329993;stroke-linecap:butt;stroke-linejoin:round;stroke-miterlimit:4;stroke-dasharray:0.61319968, 0.61319968;stroke-dashoffset:0;stroke-opacity:1"
       inkscape:connector-curvature="0" />
    <path
       id="path4799-9-1"
       d="m 43.06525,267.90542 -2.443465,-2.43961"
       style="fill:#b11313;fill-opacity:1;stroke:#e48e63;stroke-width:0.15329993;stroke-linecap:butt;stroke-linejoin:round;stroke-miterlimit:4;stroke-dasharray:0.61319969, 0.61319969;stroke-dashoffset:0;stroke-opacity:1"
       inkscape:connector-curvature="0" />
    <path
       id="path4888"
       d="m 79.906796,237.14669 -3.030749,3.39048 c 0.101283,11.26068 -5.617459,13.78238 -9.638342,14.23175 -0.903205,-12.75826 3.261525,-13.87158 9.32516,-14.71268 0.553747,-0.23097 3.085603,-4.43703 3.343935,-2.90954 z"
       style="fill:#005500;stroke:none;stroke-width:0.28617555px;stroke-linecap:butt;stroke-linejoin:miter;stroke-opacity:1"
       inkscape:connector-curvature="0" />
    <path
       id="path4888-7-1"
       d="m 13.717209,239.71175 1.065523,1.34873 c 6.11636,-2.31121 9.029231,3.7758 10.355144,8.31361 -7.453342,0.57528 -6.896491,0.79713 -10.53334,-7.85965 -0.274863,-0.59201 -1.65122,-1.20785 -0.887327,-1.80269 z"
       style="fill:#008000;stroke:none;stroke-width:0.23598361px;stroke-linecap:butt;stroke-linejoin:miter;stroke-opacity:1"
       inkscape:connector-curvature="0" />
    <path
       id="path4888-4"
       d="m 13.173839,236.08129 3.961675,-1.31585 c 6.851327,8.09447 11.946828,2.86831 14.7168,-1.74311 -11.089617,-4.93429 -10.16692,-2.61624 -14.817839,1.01876 -0.485321,0.51538 -4.638283,0.64232 -3.860636,2.0402 z"
       style="fill:#00aa44;stroke:none;stroke-width:0.31241485px;stroke-linecap:butt;stroke-linejoin:miter;stroke-opacity:1"
       inkscape:connector-curvature="0"
       sodipodi:nodetypes="ccccc" />
    <path
       id="path4888-0"
       d="m 19.345608,289.95679 -1.969772,-4.50781 c 2.676811,-10.5852 3.049357,-6.03796 -4.643042,-15.37947 -3.7477545,11.65273 -1.056315,12.28833 4.248675,15.69832 0.449139,0.45681 1.779243,5.51929 2.364139,4.18896 z"
       style="fill:#d40000;stroke:none;stroke-width:0.27964699px;stroke-linecap:butt;stroke-linejoin:miter;stroke-opacity:1"
       inkscape:connector-curvature="0" />
    <path
       id="path4888-0-2"
       d="m 81.526446,238.98568 -0.07124,4.04075 c 5.636799,6.30409 4.425438,2.93206 1.408065,12.88006 -6.841924,-6.59061 -4.913368,-8.2129 -1.827218,-12.93316 0.205478,-0.5183 -0.415529,-4.67157 0.490392,-3.98765 z"
       style="fill:#00aa00;stroke:none;stroke-width:0.23490201px;stroke-linecap:butt;stroke-linejoin:miter;stroke-opacity:1"
       inkscape:connector-curvature="0" />
    <path
       id="path4888-0-2-5"
       d="m 12.095393,243.16276 0.557238,4.03537 c 6.379103,5.16124 4.69594,2.0445 3.343599,12.54015 -7.5786125,-5.20851 -5.981152,-7.20364 -3.753612,-12.51026 0.116728,-0.55638 -1.121498,-4.56707 -0.147225,-4.06526 z"
       style="fill:#00aa44;stroke:#00aa44;stroke-width:0.23307398px;stroke-linecap:butt;stroke-linejoin:miter;stroke-opacity:1"
       inkscape:connector-curvature="0" />
    <path
       id="path4888-7-1-8"
       d="m 26.519708,288.95305 1.771954,-0.90942 c 1.481763,-9.92988 8.400315,-11.29174 13.076962,-11.08385 -3.742811,11.05058 -3.234238,10.34903 -12.785929,11.55427 -0.668068,0.12024 -1.983357,1.82267 -2.062987,0.439 z"
       style="fill:#800000;stroke:none;stroke-width:0.2906338px;stroke-linecap:butt;stroke-linejoin:miter;stroke-opacity:1"
       inkscape:connector-curvature="0" />
    <path
       id="path4888-7-1-0"
       d="m 82.784676,238.04201 1.803397,0.77099 c 1.782401,8.95801 8.758264,9.98374 13.439855,9.65402 -4.082393,-9.90578 -3.551615,-9.2851 -13.1622,-10.08931 -0.673258,-0.0889 -2.042602,-1.59261 -2.081052,-0.3357 z"
       style="fill:#005500;stroke:none;stroke-width:0.27720192px;stroke-linecap:butt;stroke-linejoin:miter;stroke-opacity:1"
       inkscape:connector-curvature="0" />
    <path
       id="path4888-0-2-1"
       d="m 23.162719,288.65894 0.634293,-4.03507 c -4.61844,-7.86122 -3.907874,-4.14769 0.426491,-13.30744 5.754163,8.47703 3.64581,9.57941 -0.02497,13.4749 -0.272932,0.46409 -0.247538,4.80068 -1.035809,3.86761 z"
       style="fill:#aa0000;stroke:none;stroke-width:0.23689581px;stroke-linecap:butt;stroke-linejoin:miter;stroke-opacity:1"
       inkscape:connector-curvature="0" />
  </g>
</svg>
