<?xml version="1.0" encoding="UTF-8"?>
<svg xmlns="http://www.w3.org/2000/svg" xmlns:xlink="http://www.w3.org/1999/xlink" width="16px" height="16px" viewBox="0 0 16 16" version="1.1">
<defs>
<filter id="alpha" filterUnits="objectBoundingBox" x="0%" y="0%" width="100%" height="100%">
  <feColorMatrix type="matrix" in="SourceGraphic" values="0 0 0 0 1 0 0 0 0 1 0 0 0 0 1 0 0 0 1 0"/>
</filter>
<mask id="mask0">
  <g filter="url(#alpha)">
<rect x="0" y="0" width="16" height="16" style="fill:rgb(0%,0%,0%);fill-opacity:0.1;stroke:none;"/>
  </g>
</mask>
<clipPath id="clip1">
  <rect x="0" y="0" width="192" height="152"/>
</clipPath>
<g id="surface57780" clip-path="url(#clip1)">
<path style=" stroke:none;fill-rule:nonzero;fill:rgb(0%,0%,0%);fill-opacity:1;" d="M 128 107.65625 C 127.917969 111.746094 124.621094 115 120.507812 115 L 120.007812 115 L 120.007812 116 L 120.507812 116 C 123.753906 116 126.566406 114.1875 128 111.519531 Z M 96 115 L 120 116 L 120 115 Z M 96 115 "/>
<path style=" stroke:none;fill-rule:nonzero;fill:rgb(0%,0%,0%);fill-opacity:1;" d="M 128 110.65625 C 127.917969 114.746094 124.621094 118 120.507812 118 L 120.007812 118 L 120.007812 119 L 120.507812 119 C 123.730469 119 126.53125 117.210938 127.972656 114.574219 C 127.984375 114.382812 128 114.191406 128 114 Z M 102 118 L 120 119 L 120 118 Z M 102 118 "/>
</g>
</defs>
<g id="surface57776">
<path style=" stroke:none;fill-rule:nonzero;fill:rgb(0%,0%,0%);fill-opacity:1;" d="M 4 11 L 4 13 C 5.65625 13 7 14.34375 7 16 L 9 16 C 9 13.238281 6.761719 11 4 11 Z M 4 11 "/>
<path style=" stroke:none;fill-rule:nonzero;fill:rgb(0%,0%,0%);fill-opacity:1;" d="M 12 11 C 9.238281 11 7 13.238281 7 16 L 9 16 C 9 14.34375 10.34375 13 12 13 Z M 12 11 "/>
<path style=" stroke:none;fill-rule:nonzero;fill:rgb(0%,0%,0%);fill-opacity:1;" d="M 1 11 L 4 11 L 4 13 L 1 13 Z M 1 11 "/>
<path style=" stroke:none;fill-rule:nonzero;fill:rgb(0%,0%,0%);fill-opacity:1;" d="M 12 11 L 15 11 L 15 13 L 12 13 Z M 12 11 "/>
<path style=" stroke:none;fill-rule:nonzero;fill:rgb(0%,0%,0%);fill-opacity:1;" d="M 1 12 L 1 3 L 3 3 L 3 12 Z M 1 12 "/>
<path style=" stroke:none;fill-rule:nonzero;fill:rgb(0%,0%,0%);fill-opacity:1;" d="M 13 12 L 13 3 L 15 3 L 15 12 Z M 13 12 "/>
<path style=" stroke:none;fill-rule:nonzero;fill:rgb(0%,0%,0%);fill-opacity:1;" d="M 12 3 C 11.316406 3 10.640625 3.140625 10.015625 3.410156 C 10.449219 3.894531 10.8125 4.488281 10.992188 5.175781 C 11.316406 5.058594 11.65625 5 12 5 Z M 12 3 "/>
<path style=" stroke:none;fill-rule:nonzero;fill:rgb(0%,0%,0%);fill-opacity:1;" d="M 12 3 L 15 3 L 15 5 L 12 5 Z M 12 3 "/>
<path style=" stroke:none;fill-rule:nonzero;fill:rgb(0%,0%,0%);fill-opacity:1;" d="M 4 1.207031 C 4.28125 5.496094 2.761719 9.34375 8.5 9 C 11.667969 4.203125 7.472656 3.65625 4 1.207031 Z M 4 1.207031 "/>
<path style=" stroke:none;fill-rule:nonzero;fill:rgb(0%,0%,0%);fill-opacity:1;" d="M 7.5625 8.386719 L 8.429688 7.886719 L 9.929688 10.484375 L 9.0625 10.984375 Z M 7.5625 8.386719 "/>
<path style=" stroke:none;fill-rule:nonzero;fill:rgb(0%,0%,0%);fill-opacity:1;" d="M 4 1.207031 C 4.28125 5.496094 2.761719 9.34375 8.5 9 C 11.667969 4.203125 7.472656 3.65625 4 1.207031 Z M 4 1.207031 "/>
<use xlink:href="#surface57780" transform="matrix(1,0,0,1,-168,-16)" mask="url(#mask0)"/>
</g>
</svg>
