<?xml version="1.0" encoding="UTF-8" standalone="no"?>
<svg
   xmlns:dc="http://purl.org/dc/elements/1.1/"
   xmlns:cc="http://creativecommons.org/ns#"
   xmlns:rdf="http://www.w3.org/1999/02/22-rdf-syntax-ns#"
   xmlns:svg="http://www.w3.org/2000/svg"
   xmlns="http://www.w3.org/2000/svg"
   xmlns:xlink="http://www.w3.org/1999/xlink"
   id="svg8"
   version="1.1"
   viewBox="0 0 110 73.000002"
   height="128"
   width="128">
  <defs
     id="defs2">
    <linearGradient
       id="linearGradient4617">
      <stop
         id="stop4613"
         offset="0"
         style="stop-color:#f9f9f9;stop-opacity:1;" />
      <stop
         id="stop4615"
         offset="1"
         style="stop-color:#f9f9f9;stop-opacity:0;" />
    </linearGradient>
    <linearGradient
       gradientTransform="matrix(0.99927151,0,0,0.97267868,1.5003792,7.0878445)"
       gradientUnits="userSpaceOnUse"
       y2="258.01471"
       x2="70.126152"
       y1="257.71136"
       x1="43.778748"
       id="linearGradient4619"
       xlink:href="#linearGradient4617" />
  </defs>
  <metadata
     id="metadata5">
    <rdf:RDF>
      <cc:Work
         rdf:about="">
        <dc:format>image/svg+xml</dc:format>
        <dc:type
           rdf:resource="http://purl.org/dc/dcmitype/StillImage" />
        <dc:title></dc:title>
      </cc:Work>
    </rdf:RDF>
  </metadata>
  <g
     transform="translate(0,-224)"
     id="layer1">
    <rect
       rx="1.6253299"
       ry="1.6253299"
       y="228.64999"
       x="5.5999999"
       height="63"
       width="100"
       id="rect58"
       style="fill:#554400;stroke:#000000;stroke-width:0.69999999;stroke-miterlimit:4;stroke-dasharray:none;stroke-opacity:1" />
    <path
       id="rect4572-3"
       d="m 55.114049,232.14932 c -0.01749,-2.96908 -0.06021,-1.6169 -46.9657595,-1.80148 v 59.3334 c 46.8533285,0.27296 46.8695135,1.45007 46.8968265,-1.04636 z"
       style="fill:url(#linearGradient4619);fill-opacity:1;stroke:none;stroke-width:0.99018896;stroke-miterlimit:4;stroke-dasharray:none;stroke-opacity:1" />
    <path
       id="rect4572-3-6"
       d="m 54.967711,231.98595 c -0.01449,-2.95578 -0.07329,-1.46176 47.999449,-1.8057 v 59.4724 c -47.962404,0.0323 -47.937848,1.49447 -47.929002,-1.04882 z"
       style="fill:#f9f9f9;stroke:none;stroke-width:1.00219834;stroke-miterlimit:4;stroke-dasharray:none;stroke-opacity:1" />
    <g
       id="text4623"
       style="font-style:normal;font-weight:normal;font-size:7.3436265px;line-height:1.25;font-family:sans-serif;letter-spacing:0px;word-spacing:0px;fill:#000000;fill-opacity:1;stroke:none;stroke-width:0.18359067"
       transform="scale(1.0808817,0.92517061)"
       aria-label="Chapter I">
      <path
         id="path4654"
         style="font-style:normal;font-variant:normal;font-weight:normal;font-stretch:normal;font-family:Uroob;-inkscape-font-specification:Uroob;stroke-width:0.18359067"
         d="m 64.694631,258.66483 q 0,-0.34424 -0.283275,-0.34782 h -0.631092 q -0.139845,0 -0.204388,0.0896 -0.06454,0.0897 -0.06454,0.21873 v 2.85068 q 0,0.12909 0.06454,0.21873 0.06454,0.0896 0.204388,0.0896 h 0.631092 q 0.276104,0 0.283275,-0.31913 0,-0.0861 0,-0.16494 h 0.649022 v 0.29403 q 0,0.32272 -0.233074,0.53786 -0.233074,0.21156 -0.548621,0.21156 h -0.824723 q -0.333476,0 -0.602407,-0.21156 -0.272518,-0.21156 -0.272518,-0.53786 v -3.08734 q 0,-0.3263 0.272518,-0.54145 0.272517,-0.21514 0.602407,-0.21514 h 0.824723 q 0.319132,0 0.552207,0.21873 0.229488,0.21873 0.229488,0.53786 v 0.32989 h -0.649022 z" />
      <path
         id="path4656"
         style="font-style:normal;font-variant:normal;font-weight:normal;font-stretch:normal;font-family:Uroob;-inkscape-font-specification:Uroob;stroke-width:0.18359067"
         d="m 68.029383,262.34023 h -0.613164 v -2.63553 q 0,-0.13626 -0.07889,-0.22949 -0.0753,-0.0968 -0.222317,-0.0968 h -0.451805 q -0.147016,0 -0.251003,0.11116 -0.107573,0.11116 -0.107573,0.251 v 2.59968 h -0.613164 l -0.0036,-4.56826 h 0.620336 v 1.20123 q 0.132673,-0.1255 0.311961,-0.1255 h 0.573721 q 0.315546,0 0.577306,0.21156 0.258174,0.21156 0.258174,0.52711 z" />
      <path
         id="path4658"
         style="font-style:normal;font-variant:normal;font-weight:normal;font-stretch:normal;font-family:Uroob;-inkscape-font-specification:Uroob;stroke-width:0.18359067"
         d="m 70.223866,259.68318 q 0,-0.3012 -0.290446,-0.3012 h -0.652608 q -0.107572,0 -0.16853,0.0681 -0.05737,0.0645 -0.06096,0.16853 h -0.61675 q 0.0072,-0.32631 0.21156,-0.55221 0.204388,-0.2259 0.519934,-0.2259 h 0.957397 q 0.308375,0 0.505591,0.22232 0.197217,0.22231 0.197217,0.54144 v 2.73952 h -0.598821 v -0.13984 q -0.193631,0.1506 -0.38009,0.1506 h -0.588064 q -0.326304,0 -0.59165,-0.21156 -0.265346,-0.21156 -0.265346,-0.51994 v -0.68129 q 0,-0.31555 0.265346,-0.52711 0.265346,-0.21155 0.59165,-0.21155 h 0.695636 q 0.14343,0 0.268932,0.0789 z m -0.01076,1.82156 v -0.44463 q 0,-0.13626 -0.07889,-0.22949 -0.0753,-0.0968 -0.222317,-0.0968 h -0.609578 q -0.150602,0 -0.218731,0.0968 -0.06813,0.0932 -0.06813,0.22949 v 0.44463 q 0,0.13626 0.06813,0.23308 0.06813,0.0932 0.218731,0.0932 h 0.609578 q 0.147016,0 0.222317,-0.0932 0.07889,-0.0968 0.07889,-0.23308 z" />
      <path
         id="path4660"
         style="font-style:normal;font-variant:normal;font-weight:normal;font-stretch:normal;font-family:Uroob;-inkscape-font-specification:Uroob;stroke-width:0.18359067"
         d="m 71.751398,259.0234 q 0.233074,-0.16853 0.519934,-0.16853 h 0.251003 q 0.455391,0 0.727909,0.26176 0.272517,0.26176 0.272517,0.72432 v 1.43431 q 0,0.753 -0.505592,0.98249 -0.175702,0.0789 -0.423119,0.0789 h -0.394433 q -0.233074,0 -0.394433,-0.1757 v 1.75343 h -0.620335 l 0.0036,-5.0595 h 0.562964 z m 1.158199,2.20524 v -1.30163 q 0,-0.27969 -0.06096,-0.37292 -0.111158,-0.17211 -0.369333,-0.17211 h -0.308375 q -0.111158,0 -0.240245,0.0789 -0.125502,0.0789 -0.125502,0.18646 v 1.80364 q 0,0.10757 0.132673,0.23307 0.132673,0.12192 0.233074,0.12192 h 0.308375 q 0.35499,0 0.412362,-0.35499 0.01434,-0.10399 0.01793,-0.22232 z" />
      <path
         id="path4662"
         style="font-style:normal;font-variant:normal;font-weight:normal;font-stretch:normal;font-family:Uroob;-inkscape-font-specification:Uroob;stroke-width:0.18359067"
         d="m 74.720402,261.60156 q 0,0.26535 0.286861,0.26535 0.290446,0 0.322718,-0.30121 h 0.132673 v 0.64902 q -0.23666,0.21515 -0.552206,0.21515 -0.59165,0 -0.778109,-0.44463 -0.06096,-0.14343 -0.06096,-0.34065 v -2.14787 h -0.26176 v -0.54145 h 0.26176 v -0.68488 h 0.649021 v 0.68488 h 0.494835 v 0.54145 h -0.494835 z" />
      <path
         id="path4664"
         style="font-style:normal;font-variant:normal;font-weight:normal;font-stretch:normal;font-family:Uroob;-inkscape-font-specification:Uroob;stroke-width:0.18359067"
         d="m 78.151971,261.5406 q -0.01076,0.54145 -0.419534,0.73867 -0.136258,0.0645 -0.31196,0.0645 h -0.849824 q -0.319132,0 -0.527106,-0.22949 -0.21156,-0.22949 -0.21156,-0.5522 v -1.95783 q 0,-0.31913 0.193631,-0.54862 0.193631,-0.22948 0.509177,-0.22948 h 0.910782 q 0.319132,0 0.509177,0.24383 0.190045,0.24383 0.190045,0.57013 v 0.46615 q 0,0.31555 -0.175702,0.54145 -0.175702,0.22232 -0.487662,0.22232 h -1.047041 v 0.64902 q 0,0.28686 0.290446,0.28686 h 0.545035 q 0.121916,0 0.193631,-0.0681 0.0753,-0.0717 0.07172,-0.19722 z m -1.427131,-2.15862 q -0.290446,0 -0.290446,0.3012 v 0.65619 h 0.78528 q 0.136259,0 0.229489,-0.0753 0.09682,-0.0789 0.09682,-0.2259 v -0.36933 q 0,-0.1506 -0.09682,-0.21873 -0.09323,-0.0681 -0.229489,-0.0681 z" />
      <path
         id="path4666"
         style="font-style:normal;font-variant:normal;font-weight:normal;font-stretch:normal;font-family:Uroob;-inkscape-font-specification:Uroob;stroke-width:0.18359067"
         d="m 80.066763,259.37839 -0.362161,-0.004 q -0.451805,0 -0.588064,0.3263 -0.04662,0.11116 -0.04662,0.25459 v 2.38453 h -0.613164 l -0.0036,-3.17698 q -0.157774,0 -0.157774,-0.11833 v -0.20798 h 0.706394 v 0.32631 q 0.0502,-0.14343 0.182874,-0.23666 0.132672,-0.0932 0.283274,-0.0932 h 0.598821 z" />
      <path
         id="path4668"
         style="font-style:normal;font-variant:normal;font-weight:normal;font-stretch:normal;font-family:Uroob;-inkscape-font-specification:Uroob;stroke-width:0.18359067"
         d="m 83.114655,262.34381 h -0.659779 v -4.40331 q 0,-0.0717 0.05379,-0.1255 0.05379,-0.0538 0.125502,-0.0538 h 0.301203 q 0.07171,0 0.125501,0.0538 0.05379,0.0538 0.05379,0.1255 z" />
    </g>
    <text
       transform="scale(0.90656944,1.1030595)"
       id="text4652"
       y="229.21805"
       x="65.926857"
       style="font-style:normal;font-weight:normal;font-size:10.59737396px;line-height:0.1;font-family:sans-serif;letter-spacing:0px;word-spacing:0px;fill:#000000;fill-opacity:1;stroke:none;stroke-width:0.26493433"
       xml:space="preserve"><tspan
         id="tspan4675"
         style="font-style:normal;font-variant:normal;font-weight:bold;font-stretch:normal;font-size:2.11947465px;line-height:0.1;font-family:'Tlwg Typewriter';-inkscape-font-specification:'Tlwg Typewriter Bold';stroke-width:0.26493433"
         y="229.21805"
         x="65.926857">The quick brown fox jumps over the</tspan><tspan
         id="tspan4679"
         style="font-style:normal;font-variant:normal;font-weight:bold;font-stretch:normal;font-size:2.11947465px;line-height:0.1;font-family:'Tlwg Typewriter';-inkscape-font-specification:'Tlwg Typewriter Bold';stroke-width:0.26493433"
         y="231.97089"
         x="65.926857">lazy dog.The quick brown fox jumps</tspan><tspan
         id="tspan4681"
         style="font-style:normal;font-variant:normal;font-weight:bold;font-stretch:normal;font-size:2.11947465px;line-height:0.1;font-family:'Tlwg Typewriter';-inkscape-font-specification:'Tlwg Typewriter Bold';stroke-width:0.26493433"
         y="234.72371"
         x="65.926857">over the lazy dog.The quick brown</tspan><tspan
         id="tspan4683"
         style="font-style:normal;font-variant:normal;font-weight:bold;font-stretch:normal;font-size:2.11947465px;line-height:0.1;font-family:'Tlwg Typewriter';-inkscape-font-specification:'Tlwg Typewriter Bold';stroke-width:0.26493433"
         y="237.47655"
         x="65.926857">fox jumps over the lazy dog.</tspan><tspan
         id="tspan4695"
         style="font-style:normal;font-variant:normal;font-weight:bold;font-stretch:normal;font-size:2.11947465px;line-height:0.1;font-family:'Tlwg Typewriter';-inkscape-font-specification:'Tlwg Typewriter Bold';stroke-width:0.26493433"
         y="240.22939"
         x="65.926857" /><tspan
         id="tspan4685"
         style="font-style:normal;font-variant:normal;font-weight:bold;font-stretch:normal;font-size:2.11947465px;line-height:0.1;font-family:'Tlwg Typewriter';-inkscape-font-specification:'Tlwg Typewriter Bold';stroke-width:0.26493433"
         y="241.28912"
         x="65.926857"></tspan><tspan
         id="tspan4732"
         style="font-style:normal;font-variant:normal;font-weight:bold;font-stretch:normal;font-size:2.11947465px;line-height:0.1;font-family:'Tlwg Typewriter';-inkscape-font-specification:'Tlwg Typewriter Bold';stroke-width:0.26493433"
         y="242.34886"
         x="65.926857">The quick brown fox jumps over the</tspan><tspan
         id="tspan4689"
         style="font-style:normal;font-variant:normal;font-weight:bold;font-stretch:normal;font-size:2.11947465px;line-height:0.1;font-family:'Tlwg Typewriter';-inkscape-font-specification:'Tlwg Typewriter Bold';stroke-width:0.26493433"
         y="245.10168"
         x="65.926857">lazy dog. The quick brown fox jumps</tspan><tspan
         id="tspan4693"
         style="font-style:normal;font-variant:normal;font-weight:bold;font-stretch:normal;font-size:2.11947465px;line-height:0.1;font-family:'Tlwg Typewriter';-inkscape-font-specification:'Tlwg Typewriter Bold';stroke-width:0.26493433"
         y="247.85452"
         x="65.926857">over the lazy dog.</tspan><tspan
         id="tspan4730"
         style="font-style:normal;font-variant:normal;font-weight:bold;font-stretch:normal;font-size:2.11947465px;line-height:0.1;font-family:'Tlwg Typewriter';-inkscape-font-specification:'Tlwg Typewriter Bold';stroke-width:0.26493433"
         y="250.60736"
         x="65.926857" /><tspan
         id="tspan4709"
         style="font-style:normal;font-variant:normal;font-weight:bold;font-stretch:normal;font-size:2.11947465px;line-height:0.1;font-family:'Tlwg Typewriter';-inkscape-font-specification:'Tlwg Typewriter Bold';stroke-width:0.26493433"
         y="251.6671"
         x="65.926857">The quick brown fox jumps over the</tspan><tspan
         id="tspan4711"
         style="font-style:normal;font-variant:normal;font-weight:bold;font-stretch:normal;font-size:2.11947465px;line-height:0.1;font-family:'Tlwg Typewriter';-inkscape-font-specification:'Tlwg Typewriter Bold';stroke-width:0.26493433"
         y="254.41992"
         x="65.926857">lazy dog. The quick brown fox jumps</tspan><tspan
         id="tspan4719"
         style="font-style:normal;font-variant:normal;font-weight:bold;font-stretch:normal;font-size:2.11947465px;line-height:0.1;font-family:'Tlwg Typewriter';-inkscape-font-specification:'Tlwg Typewriter Bold';stroke-width:0.26493433"
         y="257.17276"
         x="65.926857">over the lazy dog.</tspan></text>
    <rect
       y="230.69063"
       x="7.4656172"
       height="57.919781"
       width="6.2793083"
       id="rect4734"
       style="fill:#f9f9f9;stroke:none;stroke-width:0.99634445;stroke-miterlimit:4;stroke-dasharray:none;stroke-opacity:1" />
    <rect
       y="231.2966"
       x="6.9478416"
       height="56.680084"
       width="6.2793083"
       id="rect4734-5-8"
       style="fill:#f9f9f9;stroke:none;stroke-width:0.98562413;stroke-miterlimit:4;stroke-dasharray:none;stroke-opacity:1" />
    <rect
       y="231.88623"
       x="102.1954"
       height="56.495399"
       width="2.1003518"
       id="rect4734-5-8-3"
       style="fill:#f9f9f9;stroke:none;stroke-width:0.56910551;stroke-miterlimit:4;stroke-dasharray:none;stroke-opacity:1" />
    <rect
       y="230.94717"
       x="101.63497"
       height="58.157566"
       width="2.1003518"
       id="rect4734-5-8-3-3"
       style="fill:#f9f9f9;stroke:none;stroke-width:0.57741672;stroke-miterlimit:4;stroke-dasharray:none;stroke-opacity:1" />
    <path
       id="rect4796"
       d="m 40.778564,230.07919 h 4 v 37.5281 l -1.978028,-2.01746 -2.021972,2.01746 z"
       style="fill:#d40000;stroke:none;stroke-width:0.59084672;stroke-miterlimit:4;stroke-dasharray:none;stroke-opacity:1" />
    <path
       id="path4799"
       d="m 41.352787,230.3121 h 3.5829"
       style="fill:#b11313;fill-opacity:1;stroke:#e48e63;stroke-width:0.15000001;stroke-linecap:butt;stroke-linejoin:round;stroke-miterlimit:4;stroke-dasharray:0.6, 0.6;stroke-dashoffset:0;stroke-opacity:1" />
    <path
       id="path4803"
       d="m 40.973516,230.46299 -0.0036,36.3475"
       style="fill:none;stroke:#e48e63;stroke-width:0.13978823;stroke-linecap:butt;stroke-linejoin:miter;stroke-miterlimit:4;stroke-dasharray:0.55915287, 0.55915287;stroke-dashoffset:0;stroke-opacity:1" />
    <path
       id="path4803-1"
       d="m 44.602173,230.43778 -0.0036,36.3475"
       style="fill:none;stroke:#e48e63;stroke-width:0.13978824;stroke-linecap:butt;stroke-linejoin:miter;stroke-miterlimit:4;stroke-dasharray:0.55915287, 0.55915287;stroke-dashoffset:0;stroke-opacity:1" />
    <path
       id="path4799-9"
       d="m 40.98567,267.11677 2.254494,-2.25094"
       style="fill:#b11313;fill-opacity:1;stroke:#e48e63;stroke-width:0.14144415;stroke-linecap:butt;stroke-linejoin:round;stroke-miterlimit:4;stroke-dasharray:0.56577656, 0.56577656;stroke-dashoffset:0;stroke-opacity:1" />
    <path
       id="path4799-9-1"
       d="m 44.588249,267.11616 -2.254494,-2.25094"
       style="fill:#b11313;fill-opacity:1;stroke:#e48e63;stroke-width:0.14144415;stroke-linecap:butt;stroke-linejoin:round;stroke-miterlimit:4;stroke-dasharray:0.56577657, 0.56577657;stroke-dashoffset:0;stroke-opacity:1" />
    <path
       id="path4888"
       d="m 49.10002,288.69027 0.482145,-2.50846 c 4.139828,-3.56192 3.633414,-7.05282 2.793699,-9.08302 -4.887239,3.66576 -4.254212,5.97626 -3.047612,9.09026 0.05387,0.33379 -0.850856,2.86965 -0.228228,2.50122 z"
       style="fill:#005500;stroke:none;stroke-width:0.14349638px;stroke-linecap:butt;stroke-linejoin:miter;stroke-opacity:1" />
    <path
       id="path4888-7-1"
       d="m 12.074099,289.00585 0.574246,-0.63604 c 3.899098,0.58267 5.325059,-2.16682 5.868196,-4.16252 -4.617032,0.23377 -4.287964,0.10477 -6.004975,3.98272 -0.133494,0.26686 -0.942818,0.6141 -0.437467,0.81584 z"
       style="fill:#008000;stroke:none;stroke-width:0.12096433px;stroke-linecap:butt;stroke-linejoin:miter;stroke-opacity:1" />
    <path
       id="path4888-4"
       d="m 9.9586315,288.99332 0.3728855,-2.52701 c -2.7320637,-4.72878 -1.1017457,-7.85685 0.361041,-9.49608 3.403311,5.07349 2.043104,7.04554 -0.123749,9.58673 -0.161027,0.2973 -0.144057,2.98966 -0.6101775,2.43636 z"
       style="fill:#00aa44;stroke:none;stroke-width:0.14349638px;stroke-linecap:butt;stroke-linejoin:miter;stroke-opacity:1" />
    <path
       id="path4888-0"
       d="m 9.4340163,231.84834 2.1390877,1.39612 c 1.729038,5.18034 0.299504,3.3515 6.360956,5.30426 -1.542104,-5.91141 -2.932506,-5.47957 -6.271515,-5.54202 -0.329326,-0.0765 -2.3337497,-1.87414 -2.2285287,-1.15836 z"
       style="fill:#d40000;stroke:none;stroke-width:0.14349638px;stroke-linecap:butt;stroke-linejoin:miter;stroke-opacity:1" />
    <path
       id="path4888-0-2"
       d="m 48.188211,286.89473 -1.146225,-2.28277 c 1.112068,-5.34684 1.427368,-3.04711 -2.828572,-7.78435 -1.641427,5.8846 -0.22255,6.21094 2.631662,7.94483 0.246099,0.23183 1.073944,2.79381 1.343135,2.12229 z"
       style="fill:#00aa00;stroke:none;stroke-width:0.14349638px;stroke-linecap:butt;stroke-linejoin:miter;stroke-opacity:1" />
    <path
       id="path4888-0-2-5"
       d="m 12.30606,285.65775 1.12916,-1.52672 c -0.168408,-4.03424 -0.683985,-2.39486 3.050201,-5.33653 0.494699,4.49036 -0.596611,4.55715 -2.923978,5.47735 -0.210767,0.1394 -1.138262,1.9082 -1.255383,1.3859 z"
       style="fill:#00aa44;stroke:#00aa44;stroke-width:0.10692549px;stroke-linecap:butt;stroke-linejoin:miter;stroke-opacity:1" />
    <path
       id="path4888-7-1-8"
       d="m 15.497355,239.92463 0.38526,0.76543 c 3.914164,0.47094 4.560907,3.49993 4.556024,5.56821 -4.390197,-1.44838 -4.107053,-1.23682 -4.735543,-5.43106 -0.05804,-0.29269 -0.746479,-0.8419 -0.205741,-0.90258 z"
       style="fill:#800000;stroke:none;stroke-width:0.12096433px;stroke-linecap:butt;stroke-linejoin:miter;stroke-opacity:1" />
    <path
       id="path4888-7-1-0"
       d="m 47.465477,288.8854 -0.568426,-0.64125 c -3.904246,0.54711 -5.305092,-2.21527 -5.83002,-4.21583 4.614708,0.27584 4.286831,0.14384 5.968432,4.03728 0.131055,0.26807 0.937184,0.62266 0.430014,0.8198 z"
       style="fill:#005500;stroke:none;stroke-width:0.12096433px;stroke-linecap:butt;stroke-linejoin:miter;stroke-opacity:1" />
    <path
       id="path4888-0-2-1"
       d="m 10.168234,235.08181 0.63713,2.47365 c 4.353224,3.29771 3.078842,1.35757 2.986496,7.72514 -5.1056408,-3.35488 -4.2510748,-4.53362 -3.240372,-7.7166 0.03302,-0.33648 -1.0275788,-2.8112 -0.383254,-2.48219 z"
       style="fill:#aa0000;stroke:none;stroke-width:0.14349638px;stroke-linecap:butt;stroke-linejoin:miter;stroke-opacity:1" />
  </g>
</svg>
