<?xml version="1.0" encoding="UTF-8" standalone="no"?>
<svg
   xmlns:dc="http://purl.org/dc/elements/1.1/"
   xmlns:cc="http://creativecommons.org/ns#"
   xmlns:rdf="http://www.w3.org/1999/02/22-rdf-syntax-ns#"
   xmlns:svg="http://www.w3.org/2000/svg"
   xmlns="http://www.w3.org/2000/svg"
   xmlns:xlink="http://www.w3.org/1999/xlink"
   width="64"
   height="64"
   viewBox="0 0 110 73.000002"
   version="1.1"
   id="svg8">
  <defs
     id="defs2">
    <linearGradient
       id="linearGradient4617">
      <stop
         style="stop-color:#f9f9f9;stop-opacity:1;"
         offset="0"
         id="stop4613" />
      <stop
         style="stop-color:#f9f9f9;stop-opacity:0;"
         offset="1"
         id="stop4615" />
    </linearGradient>
    <linearGradient
       xlink:href="#linearGradient4617"
       id="linearGradient4619"
       x1="43.778748"
       y1="257.71136"
       x2="70.126152"
       y2="258.01471"
       gradientUnits="userSpaceOnUse"
       gradientTransform="matrix(1.0286517,0,0,1.0542081,-0.63074303,-13.918342)" />
  </defs>
  <metadata
     id="metadata5">
    <rdf:RDF>
      <cc:Work
         rdf:about="">
        <dc:format>image/svg+xml</dc:format>
        <dc:type
           rdf:resource="http://purl.org/dc/dcmitype/StillImage" />
        <dc:title></dc:title>
      </cc:Work>
    </rdf:RDF>
  </metadata>
  <g
     id="layer1"
     transform="translate(0,-224)">
    <rect
       style="fill:#554400;stroke:#000000;stroke-width:0.75867367;stroke-miterlimit:4;stroke-dasharray:none;stroke-opacity:1"
       id="rect58"
       width="108.38195"
       height="68.280632"
       x="0.89496183"
       y="226.21503"
       ry="1.6253299"
       rx="1.6253299" />
    <path
       style="fill:url(#linearGradient4619);fill-opacity:1;stroke:none;stroke-width:1.04589713;stroke-miterlimit:4;stroke-dasharray:none;stroke-opacity:1"
       d="m 54.559255,230.00768 c -0.01801,-3.21795 -0.06198,-1.75243 -48.346629,-1.95248 l -2.6679105,2.73864 -0.015592,58.87293 2.9913383,2.4899 c 48.2308942,0.29584 47.9397182,1.77684 47.9678342,-0.92884 z"
       id="rect4572-3" />
    <path
       style="fill:#f9f9f9;stroke:none;stroke-width:1.07132292;stroke-miterlimit:4;stroke-dasharray:none;stroke-opacity:1"
       d="m 54.400635,229.83061 c -0.01528,-3.20353 -0.07728,-1.58428 50.607235,-1.95705 l 1.83208,1.60941 -0.0181,61.22047 -1.81394,1.62747 c -50.568177,0.035 -50.542287,1.61973 -50.532961,-1.13673 z"
       id="rect4572-3-6" />
    <g
       transform="matrix(1.9742904,0,0,1.3505354,-54.110219,-79.659786)"
       id="g212">
      <path
         id="rect4796"
         d="m 38.936239,227.76403 h 4.335278 v 40.67369 l -2.143825,-2.18657 -2.191453,2.18657 z"
         style="fill:#d40000;stroke:none;stroke-width:0.6403712;stroke-miterlimit:4;stroke-dasharray:none;stroke-opacity:1" />
      <path
         id="path4799"
         d="M 39.558593,228.01646 H 43.44181"
         style="fill:#b11313;fill-opacity:1;stroke:#e48e63;stroke-width:0.16257294;stroke-linecap:butt;stroke-linejoin:round;stroke-miterlimit:4;stroke-dasharray:0.65029171, 0.65029171;stroke-dashoffset:0;stroke-opacity:1" />
      <path
         id="path4803"
         d="m 39.147532,228.18 -0.0039,39.39413"
         style="fill:none;stroke:#e48e63;stroke-width:0.1515052;stroke-linecap:butt;stroke-linejoin:miter;stroke-miterlimit:4;stroke-dasharray:0.60602079, 0.60602079;stroke-dashoffset:0;stroke-opacity:1" />
      <path
         id="path4803-1"
         d="m 43.080341,228.15268 -0.0039,39.39412"
         style="fill:none;stroke:#e48e63;stroke-width:0.15150522;stroke-linecap:butt;stroke-linejoin:miter;stroke-miterlimit:4;stroke-dasharray:0.60602079, 0.60602079;stroke-dashoffset:0;stroke-opacity:1" />
      <path
         id="path4799-9"
         d="m 39.160704,267.90608 2.443465,-2.43961"
         style="fill:#b11313;fill-opacity:1;stroke:#e48e63;stroke-width:0.15329993;stroke-linecap:butt;stroke-linejoin:round;stroke-miterlimit:4;stroke-dasharray:0.61319968, 0.61319968;stroke-dashoffset:0;stroke-opacity:1" />
      <path
         id="path4799-9-1"
         d="m 43.06525,267.90542 -2.443465,-2.43961"
         style="fill:#b11313;fill-opacity:1;stroke:#e48e63;stroke-width:0.15329993;stroke-linecap:butt;stroke-linejoin:round;stroke-miterlimit:4;stroke-dasharray:0.61319969, 0.61319969;stroke-dashoffset:0;stroke-opacity:1" />
    </g>
    <g
       id="text216"
       style="font-style:normal;font-weight:normal;font-size:60.21294403px;line-height:1.25;font-family:sans-serif;letter-spacing:0px;word-spacing:0px;fill:#000000;fill-opacity:1;stroke:none;stroke-width:1.50532353"
       transform="scale(0.99433943,1.0056928)"
       aria-label="F">
      <path
         id="path90"
         style="stroke-width:1.50532353"
         d="m 78.998295,234.80674 q 0,0.54191 -0.842981,1.32468 -0.842981,0.78277 -1.685963,1.98703 -0.842981,1.14404 -0.842981,2.64937 7.225553,0 16.919837,1.14404 3.251499,0.36128 3.251499,2.95044 0,1.8666 -1.144046,4.45575 -1.083833,2.52895 -2.348304,2.52895 -1.02362,0 -2.107453,-2.64937 -0.662343,-1.56554 -2.227879,-2.7698 -1.565537,-1.20426 -3.311712,-1.74617 -1.746176,-0.60213 -3.131073,-0.9032 -1.324685,-0.30106 -1.987028,-0.30106 -1.324684,0 -2.589156,1.62575 -1.204259,1.56554 -1.204259,2.58916 l 0.06021,5.96108 q 3.913841,0 14.571532,1.14404 2.950435,0.54192 2.950435,2.89022 0,1.92682 -1.144046,4.45576 -1.144046,2.52895 -2.408518,2.52895 -1.144046,0 -2.107453,-2.64937 -0.662342,-1.56554 -2.227879,-2.7698 -1.565537,-1.20426 -3.311712,-1.74617 -1.746175,-0.60213 -3.131073,-0.9032 -1.324685,-0.30106 -1.987027,-0.30106 -0.782768,0 -1.204259,0.30106 v 3.19129 q 0,5.29874 0.481704,8.97173 0.541916,3.61277 1.02362,5.41916 0.481703,1.80639 0.481703,2.70958 0,1.68597 -2.348305,2.89022 l -7.406192,3.67299 q -0.240852,0.18064 -0.903194,0.18064 -1.264472,0 -1.264472,-1.08383 0,-0.66234 1.445111,-1.74618 0.120426,-0.0602 0.782768,-0.60213 0.722555,-0.4817 0.842981,-0.60212 0.120426,-0.12043 0.60213,-0.54192 0.541916,-0.42149 0.602129,-0.66234 0.120426,-0.24086 0.361278,-0.72256 0.301065,-0.4817 0.361278,-0.96341 0.06021,-0.4817 0.06021,-1.08383 v -32.0935 q 0,-2.04724 -0.602129,-3.49235 -0.602129,-1.50532 -1.324685,-2.04724 -0.722555,-0.60213 -1.324684,-1.20426 -0.60213,-0.60213 -0.60213,-1.14404 0,-2.52895 6.201933,-2.52895 5.72023,0 5.72023,1.68597 z" />
    </g>
  </g>
</svg>
