<?xml version="1.0" encoding="UTF-8"?>
<svg xmlns="http://www.w3.org/2000/svg" xmlns:xlink="http://www.w3.org/1999/xlink" width="128px" height="128px" viewBox="0 0 128 128" version="1.1">
<defs>
<linearGradient id="linear0" gradientUnits="userSpaceOnUse" x1="64" y1="246" x2="120" y2="246" gradientTransform="matrix(1,0,0,1,0,-166)">
<stop offset="0" style="stop-color:rgb(75.294119%,74.901962%,73.725492%);stop-opacity:1;"/>
<stop offset="0.857143" style="stop-color:rgb(75.294119%,74.901962%,73.725492%);stop-opacity:1;"/>
<stop offset="0.928571" style="stop-color:rgb(87.058824%,86.666667%,85.490197%);stop-opacity:1;"/>
<stop offset="1" style="stop-color:rgb(75.294119%,74.901962%,73.725492%);stop-opacity:1;"/>
</linearGradient>
<linearGradient id="linear1" gradientUnits="userSpaceOnUse" x1="64" y1="246" x2="120" y2="246" gradientTransform="matrix(-1,0,0,1,128.000006,-166)">
<stop offset="0" style="stop-color:rgb(75.294119%,74.901962%,73.725492%);stop-opacity:1;"/>
<stop offset="0.857143" style="stop-color:rgb(75.294119%,74.901962%,73.725492%);stop-opacity:1;"/>
<stop offset="0.928571" style="stop-color:rgb(87.058824%,86.666667%,85.490197%);stop-opacity:1;"/>
<stop offset="1" style="stop-color:rgb(75.294119%,74.901962%,73.725492%);stop-opacity:1;"/>
</linearGradient>
<filter id="alpha" filterUnits="objectBoundingBox" x="0%" y="0%" width="100%" height="100%">
  <feColorMatrix type="matrix" in="SourceGraphic" values="0 0 0 0 1 0 0 0 0 1 0 0 0 0 1 0 0 0 1 0"/>
</filter>
<mask id="mask0">
  <g filter="url(#alpha)">
<rect x="0" y="0" width="128" height="128" style="fill:rgb(0%,0%,0%);fill-opacity:0.1;stroke:none;"/>
  </g>
</mask>
<clipPath id="clip1">
  <rect x="0" y="0" width="192" height="152"/>
</clipPath>
<g id="surface57737" clip-path="url(#clip1)">
<path style=" stroke:none;fill-rule:nonzero;fill:rgb(0%,0%,0%);fill-opacity:1;" d="M 128 107.65625 C 127.917969 111.746094 124.621094 115 120.507812 115 L 120.007812 115 L 120.007812 116 L 120.507812 116 C 123.753906 116 126.566406 114.1875 128 111.519531 Z M 96 115 L 120 116 L 120 115 Z M 96 115 "/>
<path style=" stroke:none;fill-rule:nonzero;fill:rgb(0%,0%,0%);fill-opacity:1;" d="M 128 110.65625 C 127.917969 114.746094 124.621094 118 120.507812 118 L 120.007812 118 L 120.007812 119 L 120.507812 119 C 123.730469 119 126.53125 117.210938 127.972656 114.574219 C 127.984375 114.382812 128 114.191406 128 114 Z M 102 118 L 120 119 L 120 118 Z M 102 118 "/>
</g>
<linearGradient id="linear2" gradientUnits="userSpaceOnUse" x1="320" y1="116" x2="416" y2="116" gradientTransform="matrix(-0.25,0,0,0.25,168.000015,31.000015)">
<stop offset="0" style="stop-color:rgb(96.470588%,96.078432%,95.686275%);stop-opacity:1;"/>
<stop offset="0.5" style="stop-color:rgb(100%,100%,100%);stop-opacity:1;"/>
<stop offset="1" style="stop-color:rgb(86.666667%,85.882354%,84.705883%);stop-opacity:1;"/>
</linearGradient>
<linearGradient id="linear3" gradientUnits="userSpaceOnUse" x1="320" y1="116" x2="416" y2="116" gradientTransform="matrix(0.25,0,0,0.25,-39.99999,31.000015)">
<stop offset="0" style="stop-color:rgb(96.470588%,96.078432%,95.686275%);stop-opacity:1;"/>
<stop offset="0.5" style="stop-color:rgb(100%,100%,100%);stop-opacity:1;"/>
<stop offset="1" style="stop-color:rgb(86.666667%,85.882354%,84.705883%);stop-opacity:1;"/>
</linearGradient>
</defs>
<g id="surface57733">
<path style=" stroke:none;fill-rule:nonzero;fill:rgb(11.372549%,66.666669%,66.666669%);fill-opacity:1;" d="M 120 94.355469 L 120 101 C 120 105.433594 116.433594 109 112 109 L 90 109 C 80.316406 109 71.976562 114.738281 68.183594 123 L 59.816406 123 C 56.023438 114.738281 47.683594 109 38 109 L 16 109 C 11.566406 109 8 105.433594 8 101 L 8 94.355469 Z M 120 94.355469 "/>
<path style=" stroke:none;fill-rule:nonzero;fill:url(#linear0);" d="M 66.328125 54.019531 C 66.167969 55.007812 66.054688 56 66 57 L 64 57 L 64 120 L 68.183594 120 C 71.976562 111.738281 80.316406 106 90 106 L 112 106 C 116.433594 106 120 102.433594 120 98 L 120 62.355469 C 120 57.921875 116.433594 54.355469 112 54.355469 Z M 66.328125 54.019531 "/>
<path style=" stroke:none;fill-rule:nonzero;fill:url(#linear1);" d="M 61.675781 54.019531 C 61.832031 55.007812 61.945312 56 62 57 L 64 57 L 64 120 L 59.816406 120 C 56.023438 111.738281 47.683594 106 38 106 L 16 106 C 11.566406 106 8 102.433594 8 98 L 8 62.355469 C 8 57.921875 11.566406 54.355469 16 54.355469 Z M 61.675781 54.019531 "/>
<use xlink:href="#surface57737" transform="matrix(1,0,0,1,-8,-16)" mask="url(#mask0)"/>
<path style=" stroke:none;fill-rule:nonzero;fill:url(#linear2);" d="M 112 21 C 116.433594 21 120 24.566406 120 29 L 120 88 C 120 92.433594 116.433594 96 112 96 L 88 96 C 74.746094 96 64 106.746094 64 120 L 64 47 C 64 33.746094 74.746094 21 88 21 Z M 112 21 "/>
<path style=" stroke:none;fill-rule:nonzero;fill:url(#linear3);" d="M 16 21 C 11.566406 21 8 24.566406 8 29 L 8 88 C 8 92.433594 11.566406 96 16 96 L 40 96 C 53.253906 96 64 106.746094 64 120 L 64 47 C 64 33.746094 53.253906 21 40 21 Z M 16 21 "/>
<path style=" stroke:none;fill-rule:nonzero;fill:rgb(0%,80.000001%,80.000001%);fill-opacity:1;" d="M 102 32 L 102 38 L 90 38 C 85.625 38.183594 81.535156 39.296875 78 41.28125 L 78 35.730469 C 81.53125 33.394531 85.625 32 90 32 Z M 102 32 "/>
<path style=" stroke:none;fill-rule:nonzero;fill:rgb(87.058824%,86.666667%,85.490197%);fill-opacity:1;" d="M 108 44 L 108 48 L 90 48 C 85.625 48.183594 81.535156 49.296875 78 51.28125 L 78 47.730469 C 81.53125 45.394531 85.625 44 90 44 Z M 108 44 "/>
<path style=" stroke:none;fill-rule:nonzero;fill:rgb(87.058824%,86.666667%,85.490197%);fill-opacity:1;" d="M 108 52 L 108 56 L 90 56 C 85.625 56.183594 81.535156 57.296875 78 59.28125 L 78 55.730469 C 81.53125 53.394531 85.625 52 90 52 Z M 108 52 "/>
<path style=" stroke:none;fill-rule:nonzero;fill:rgb(87.058824%,86.666667%,85.490197%);fill-opacity:1;" d="M 108 60 L 108 64 L 90 64 C 85.625 64.183594 81.535156 65.296875 78 67.28125 L 78 63.730469 C 81.53125 61.394531 85.625 60 90 60 Z M 108 60 "/>
<path style=" stroke:none;fill-rule:nonzero;fill:rgb(87.058824%,86.666667%,85.490197%);fill-opacity:1;" d="M 36 76 L 20 76 L 20 80 L 36 80 Z M 36 76 "/>
<path style=" stroke:none;fill-rule:nonzero;fill:rgb(87.058824%,86.666667%,85.490197%);fill-opacity:1;" d="M 20 44 L 20 48 L 40 48 C 43.574219 48.148438 46.953125 48.929688 50 50.292969 L 50 46.558594 C 46.953125 44.941406 43.574219 44 40 44 Z M 20 44 "/>
<path style=" stroke:none;fill-rule:nonzero;fill:rgb(87.058824%,86.666667%,85.490197%);fill-opacity:1;" d="M 20 52 L 20 56 L 40 56 C 43.574219 56.148438 46.953125 56.929688 50 58.292969 L 50 54.558594 C 46.953125 52.941406 43.574219 52 40 52 Z M 20 52 "/>
<path style=" stroke:none;fill-rule:nonzero;fill:rgb(87.058824%,86.666667%,85.490197%);fill-opacity:1;" d="M 20 60 L 20 64 L 40 64 C 43.574219 64.148438 46.953125 64.929688 50 66.292969 L 50 62.558594 C 46.953125 60.941406 43.574219 60 40 60 Z M 20 60 "/>
<path style=" stroke:none;fill-rule:nonzero;fill:rgb(87.058824%,86.666667%,85.490197%);fill-opacity:1;" d="M 20 36 L 20 40 L 40 40 C 43.574219 40.148438 46.953125 40.929688 50 42.292969 L 50 38.558594 C 46.953125 36.941406 43.574219 36 40 36 Z M 20 36 "/>
<path style=" stroke:none;fill-rule:nonzero;fill:rgb(87.058824%,86.666667%,85.490197%);fill-opacity:1;" d="M 20 68 L 20 72 L 40 72 C 43.574219 72.148438 46.953125 72.929688 50 74.292969 L 50 70.558594 C 46.953125 68.941406 43.574219 68 40 68 Z M 20 68 "/>
<path style=" stroke:none;fill-rule:nonzero;fill:rgb(87.058824%,86.666667%,85.490197%);fill-opacity:1;" d="M 100 68 L 100 72 L 90 72 C 85.625 72.183594 81.535156 73.296875 78 75.28125 L 78 71.730469 C 81.53125 69.394531 85.625 68 90 68 Z M 100 68 "/>
<path style=" stroke:none;fill-rule:nonzero;fill:rgb(0%,80.000001%,80.000001%);fill-opacity:1;" d="M 34.503906 -0.0195312 C 34.503906 -0.0195312 26.269531 20.417969 26.296875 31.167969 C 26.3125 39.167969 27.398438 48.195312 32.507812 54.351562 C 36.433594 59.082031 49.136719 62.316406 49.136719 62.316406 L 53.277344 77.773438 L 57.140625 76.738281 L 53 61.28125 C 53 61.28125 62.378906 52.128906 63.414062 46.070312 C 64.765625 38.183594 61.1875 29.824219 57.203125 22.886719 C 51.851562 13.566406 34.503906 -0.0195312 34.503906 -0.0195312 Z M 34.503906 -0.0195312 "/>
<path style=" stroke:none;fill-rule:nonzero;fill:rgb(11.372549%,66.666669%,66.666669%);fill-opacity:1;" d="M 53.214844 77.820312 L 57.078125 76.785156 L 49.832031 49.738281 L 56.902344 37.492188 L 54.453125 36.078125 L 48.796875 45.875 L 46.726562 38.148438 L 52.382812 28.347656 L 49.933594 26.933594 L 45.691406 34.285156 L 44.136719 28.488281 L 48.378906 21.140625 L 45.929688 19.726562 L 43.101562 24.625 L 39.414062 11.148438 L 35.550781 12.183594 L 39.238281 25.660156 L 34.339844 22.832031 L 32.925781 25.28125 L 40.273438 29.523438 L 41.828125 35.320312 L 34.476562 31.078125 L 33.0625 33.527344 L 42.863281 39.183594 L 44.933594 46.910156 L 35.132812 41.253906 L 33.71875 43.703125 L 45.96875 50.773438 Z M 53.214844 77.820312 "/>
</g>
</svg>
