<?xml version="1.0" encoding="UTF-8"?>
<svg xmlns="http://www.w3.org/2000/svg" xmlns:xlink="http://www.w3.org/1999/xlink" width="128px" height="128px" viewBox="0 0 128 128" version="1.1">
<defs>
<linearGradient id="linear0" gradientUnits="userSpaceOnUse" x1="64" y1="246" x2="120" y2="246" gradientTransform="matrix(1,0,0,1,0,-166)">
<stop offset="0" style="stop-color:rgb(75.294119%,74.901962%,73.725492%);stop-opacity:1;"/>
<stop offset="0.857143" style="stop-color:rgb(75.294119%,74.901962%,73.725492%);stop-opacity:1;"/>
<stop offset="0.928571" style="stop-color:rgb(87.058824%,86.666667%,85.490197%);stop-opacity:1;"/>
<stop offset="1" style="stop-color:rgb(75.294119%,74.901962%,73.725492%);stop-opacity:1;"/>
</linearGradient>
<linearGradient id="linear1" gradientUnits="userSpaceOnUse" x1="64" y1="246" x2="120" y2="246" gradientTransform="matrix(-1,0,0,1,128.000006,-166)">
<stop offset="0" style="stop-color:rgb(75.294119%,74.901962%,73.725492%);stop-opacity:1;"/>
<stop offset="0.857143" style="stop-color:rgb(75.294119%,74.901962%,73.725492%);stop-opacity:1;"/>
<stop offset="0.928571" style="stop-color:rgb(87.058824%,86.666667%,85.490197%);stop-opacity:1;"/>
<stop offset="1" style="stop-color:rgb(75.294119%,74.901962%,73.725492%);stop-opacity:1;"/>
</linearGradient>
<filter id="alpha" filterUnits="objectBoundingBox" x="0%" y="0%" width="100%" height="100%">
  <feColorMatrix type="matrix" in="SourceGraphic" values="0 0 0 0 1 0 0 0 0 1 0 0 0 0 1 0 0 0 1 0"/>
</filter>
<mask id="mask0">
  <g filter="url(#alpha)">
<rect x="0" y="0" width="128" height="128" style="fill:rgb(0%,0%,0%);fill-opacity:0.1;stroke:none;"/>
  </g>
</mask>
<clipPath id="clip1">
  <rect x="0" y="0" width="192" height="152"/>
</clipPath>
<g id="surface203859" clip-path="url(#clip1)">
<path style=" stroke:none;fill-rule:nonzero;fill:rgb(0%,0%,0%);fill-opacity:1;" d="M 128 107.65625 C 127.917969 111.746094 124.621094 115 120.507812 115 L 120.007812 115 L 120.007812 116 L 120.507812 116 C 123.753906 116 126.566406 114.1875 128 111.519531 Z M 96 115 L 120 116 L 120 115 Z M 96 115 "/>
<path style=" stroke:none;fill-rule:nonzero;fill:rgb(0%,0%,0%);fill-opacity:1;" d="M 128 110.65625 C 127.917969 114.746094 124.621094 118 120.507812 118 L 120.007812 118 L 120.007812 119 L 120.507812 119 C 123.730469 119 126.53125 117.210938 127.972656 114.574219 C 127.984375 114.382812 128 114.191406 128 114 Z M 102 118 L 120 119 L 120 118 Z M 102 118 "/>
</g>
<linearGradient id="linear2" gradientUnits="userSpaceOnUse" x1="320" y1="116" x2="416" y2="116" gradientTransform="matrix(-0.25,0,0,0.25,168.000015,31.000015)">
<stop offset="0" style="stop-color:rgb(96.470588%,96.078432%,95.686275%);stop-opacity:1;"/>
<stop offset="0.5" style="stop-color:rgb(100%,100%,100%);stop-opacity:1;"/>
<stop offset="1" style="stop-color:rgb(87.843138%,87.058824%,85.882354%);stop-opacity:1;"/>
</linearGradient>
<linearGradient id="linear3" gradientUnits="userSpaceOnUse" x1="320" y1="116" x2="416" y2="116" gradientTransform="matrix(0.25,0,0,0.25,-39.99999,31.000015)">
<stop offset="0" style="stop-color:rgb(96.470588%,96.078432%,95.686275%);stop-opacity:1;"/>
<stop offset="0.5" style="stop-color:rgb(96.470588%,96.078432%,95.686275%);stop-opacity:1;"/>
<stop offset="1" style="stop-color:rgb(80.000001%,79.607844%,78.431374%);stop-opacity:1;"/>
</linearGradient>
<linearGradient id="linear4" gradientUnits="userSpaceOnUse" x1="59.091709" y1="216.780304" x2="46.28891" y2="168.999603" gradientTransform="matrix(1,0.000000000000000028,-0.000000000000000028,1,-11.862876,-168.9809)">
<stop offset="0" style="stop-color:rgb(0%,80.000001%,80.000001%);stop-opacity:1;"/>
<stop offset="1" style="stop-color:rgb(19.607843%,89.803922%,82.352942%);stop-opacity:1;"/>
</linearGradient>
</defs>
<g id="surface203855">
<path style=" stroke:none;fill-rule:nonzero;fill:rgb(11.372549%,66.666669%,66.666669%);fill-opacity:1;" d="M 120 94.355469 L 120 101 C 120 105.433594 116.433594 109 112 109 L 90 109 C 80.316406 109 71.976562 114.738281 68.183594 123 L 59.816406 123 C 56.023438 114.738281 47.683594 109 38 109 L 16 109 C 11.566406 109 8 105.433594 8 101 L 8 94.355469 Z M 120 94.355469 "/>
<path style=" stroke:none;fill-rule:nonzero;fill:url(#linear0);" d="M 66.328125 54.019531 C 66.167969 55.007812 66.054688 56 66 57 L 64 57 L 64 120 L 68.183594 120 C 71.976562 111.738281 80.316406 106 90 106 L 112 106 C 116.433594 106 120 102.433594 120 98 L 120 62.355469 C 120 57.921875 116.433594 54.355469 112 54.355469 Z M 66.328125 54.019531 "/>
<path style=" stroke:none;fill-rule:nonzero;fill:url(#linear1);" d="M 61.675781 54.019531 C 61.832031 55.007812 61.945312 56 62 57 L 64 57 L 64 120 L 59.816406 120 C 56.023438 111.738281 47.683594 106 38 106 L 16 106 C 11.566406 106 8 102.433594 8 98 L 8 62.355469 C 8 57.921875 11.566406 54.355469 16 54.355469 Z M 61.675781 54.019531 "/>
<use xlink:href="#surface203859" transform="matrix(1,0,0,1,-8,-16)" mask="url(#mask0)"/>
<path style=" stroke:none;fill-rule:nonzero;fill:url(#linear2);" d="M 112 21 C 116.433594 21 120 24.566406 120 29 L 120 88 C 120 92.433594 116.433594 96 112 96 L 88 96 C 74.746094 96 64 106.746094 64 120 L 64 47 C 64 33.746094 74.746094 21 88 21 Z M 112 21 "/>
<path style=" stroke:none;fill-rule:nonzero;fill:url(#linear3);" d="M 16 21 C 11.566406 21 8 24.566406 8 29 L 8 88 C 8 92.433594 11.566406 96 16 96 L 40 96 C 53.253906 96 64 106.746094 64 120 L 64 47 C 64 33.746094 53.253906 21 40 21 Z M 16 21 "/>
<path style=" stroke:none;fill-rule:nonzero;fill:rgb(0%,80.000001%,80.000001%);fill-opacity:1;" d="M 102 32 L 102 38 L 90 38 C 85.625 38.183594 81.535156 39.296875 78 41.28125 L 78 35.730469 C 81.53125 33.394531 85.625 32 90 32 Z M 102 32 "/>
<path style=" stroke:none;fill-rule:nonzero;fill:rgb(87.058824%,86.666667%,85.490197%);fill-opacity:1;" d="M 108 44 L 108 48 L 90 48 C 85.625 48.183594 81.535156 49.296875 78 51.28125 L 78 47.730469 C 81.53125 45.394531 85.625 44 90 44 Z M 108 44 "/>
<path style=" stroke:none;fill-rule:nonzero;fill:rgb(87.058824%,86.666667%,85.490197%);fill-opacity:1;" d="M 108 52 L 108 56 L 90 56 C 85.625 56.183594 81.535156 57.296875 78 59.28125 L 78 55.730469 C 81.53125 53.394531 85.625 52 90 52 Z M 108 52 "/>
<path style=" stroke:none;fill-rule:nonzero;fill:rgb(87.058824%,86.666667%,85.490197%);fill-opacity:1;" d="M 108 60 L 108 64 L 90 64 C 85.625 64.183594 81.535156 65.296875 78 67.28125 L 78 63.730469 C 81.53125 61.394531 85.625 60 90 60 Z M 108 60 "/>
<path style=" stroke:none;fill-rule:nonzero;fill:rgb(87.058824%,86.666667%,85.490197%);fill-opacity:1;" d="M 36 76 L 20 76 L 20 80 L 36 80 Z M 36 76 "/>
<path style=" stroke:none;fill-rule:nonzero;fill:rgb(87.058824%,86.666667%,85.490197%);fill-opacity:1;" d="M 20 44 L 20 48 L 40 48 C 43.574219 48.148438 46.953125 48.929688 50 50.292969 L 50 46.558594 C 46.953125 44.941406 43.574219 44 40 44 Z M 20 44 "/>
<path style=" stroke:none;fill-rule:nonzero;fill:rgb(87.058824%,86.666667%,85.490197%);fill-opacity:1;" d="M 20 52 L 20 56 L 40 56 C 43.574219 56.148438 46.953125 56.929688 50 58.292969 L 50 54.558594 C 46.953125 52.941406 43.574219 52 40 52 Z M 20 52 "/>
<path style=" stroke:none;fill-rule:nonzero;fill:rgb(87.058824%,86.666667%,85.490197%);fill-opacity:1;" d="M 20 60 L 20 64 L 40 64 C 43.574219 64.148438 46.953125 64.929688 50 66.292969 L 50 62.558594 C 46.953125 60.941406 43.574219 60 40 60 Z M 20 60 "/>
<path style=" stroke:none;fill-rule:nonzero;fill:rgb(87.058824%,86.666667%,85.490197%);fill-opacity:1;" d="M 20 36 L 20 40 L 40 40 C 43.574219 40.148438 46.953125 40.929688 50 42.292969 L 50 38.558594 C 46.953125 36.941406 43.574219 36 40 36 Z M 20 36 "/>
<path style=" stroke:none;fill-rule:nonzero;fill:rgb(87.058824%,86.666667%,85.490197%);fill-opacity:1;" d="M 20 68 L 20 72 L 40 72 C 43.574219 72.148438 46.953125 72.929688 50 74.292969 L 50 70.558594 C 46.953125 68.941406 43.574219 68 40 68 Z M 20 68 "/>
<path style=" stroke:none;fill-rule:nonzero;fill:rgb(87.058824%,86.666667%,85.490197%);fill-opacity:1;" d="M 100 68 L 100 72 L 90 72 C 85.625 72.183594 81.535156 73.296875 78 75.28125 L 78 71.730469 C 81.53125 69.394531 85.625 68 90 68 Z M 100 68 "/>
<path style=" stroke:none;fill-rule:nonzero;fill:url(#linear4);" d="M 34.433594 0 C 34.433594 0 26.203125 20.4375 26.226562 31.1875 C 26.242188 39.1875 27.328125 48.214844 32.4375 54.371094 C 36.363281 59.097656 49.066406 62.335938 49.066406 62.335938 L 52.929688 61.300781 C 52.929688 61.300781 62.308594 52.144531 63.347656 46.089844 C 64.695312 38.203125 61.121094 29.84375 57.136719 22.90625 C 51.78125 13.582031 34.433594 0 34.433594 0 Z M 34.433594 0 "/>
<path style=" stroke:none;fill-rule:nonzero;fill:rgb(11.372549%,66.666669%,66.666669%);fill-opacity:1;" d="M 53.214844 77.820312 C 42.441406 37.617188 42.726562 33.128906 37.457031 11.003906 C 43.988281 32.707031 46.304688 36.582031 57.078125 76.785156 Z M 53.214844 77.820312 "/>
<path style=" stroke:none;fill-rule:nonzero;fill:rgb(11.372549%,66.666669%,66.666669%);fill-opacity:1;" d="M 42.089844 30.066406 C 45.707031 23.804688 47.003906 22.550781 48.285156 20.46875 C 47.125 22.621094 46.648438 24.347656 43.03125 30.609375 Z M 42.089844 30.066406 "/>
<path style=" stroke:none;fill-rule:nonzero;fill:rgb(11.372549%,66.666669%,66.666669%);fill-opacity:1;" d="M 44.597656 39.785156 C 49.617188 31.089844 51.417969 29.347656 53.195312 26.453125 C 51.589844 29.445312 50.925781 31.84375 45.902344 40.539062 Z M 44.597656 39.785156 "/>
<path style=" stroke:none;fill-rule:nonzero;fill:rgb(11.372549%,66.666669%,66.666669%);fill-opacity:1;" d="M 47.359375 50.210938 C 52.671875 41.011719 54.574219 39.167969 56.457031 36.109375 C 54.753906 39.273438 54.050781 41.808594 48.742188 51.007812 Z M 47.359375 50.210938 "/>
<path style=" stroke:none;fill-rule:nonzero;fill:rgb(11.372549%,66.666669%,66.666669%);fill-opacity:1;" d="M 42.835938 29.867188 C 36.570312 26.253906 34.824219 25.816406 32.671875 24.652344 C 34.75 25.9375 36.027344 27.195312 42.289062 30.808594 Z M 42.835938 29.867188 "/>
<path style=" stroke:none;fill-rule:nonzero;fill:rgb(11.372549%,66.666669%,66.666669%);fill-opacity:1;" d="M 45.523438 39.539062 C 36.828125 34.515625 34.398438 33.90625 31.410156 32.292969 C 34.300781 34.078125 36.070312 35.824219 44.769531 40.84375 Z M 45.523438 39.539062 "/>
<path style=" stroke:none;fill-rule:nonzero;fill:rgb(11.372549%,66.666669%,66.666669%);fill-opacity:1;" d="M 48.34375 49.945312 C 39.144531 44.632812 36.574219 43.988281 33.414062 42.28125 C 36.46875 44.171875 38.347656 46.015625 47.546875 51.328125 Z M 48.34375 49.945312 "/>
</g>
</svg>
